<?xml version="1.0" standalone="no"?>
<!DOCTYPE svg PUBLIC "-//W3C//DTD SVG 20010904//EN"
 "http://www.w3.org/TR/2001/REC-SVG-20010904/DTD/svg10.dtd">
<svg version="1.0" xmlns="http://www.w3.org/2000/svg"
 width="809.000000pt" height="809.000000pt" viewBox="0 0 809.000000 809.000000"
 preserveAspectRatio="xMidYMid meet">

<g transform="translate(0.000000,809.000000) scale(0.100000,-0.100000)"
fill="#000000" stroke="none">
<path d="M3800 8084 c-25 -2 -112 -11 -195 -20 -758 -80 -1486 -381 -2089
-864 -235 -188 -438 -391 -626 -626 -484 -604 -774 -1303 -866 -2089 -25 -207
-25 -671 -1 -875 31 -264 73 -461 166 -785 48 -167 144 -398 263 -632 469
-924 1314 -1651 2304 -1981 649 -217 1350 -268 2014 -146 1338 245 2465 1147
2998 2399 150 352 251 739 298 1140 25 210 25 670 0 880 -92 784 -385 1491
-867 2090 -673 837 -1634 1367 -2704 1490 -132 15 -594 28 -695 19z m605 -123
c187 -18 263 -30 425 -66 36 -8 99 -19 140 -24 68 -9 324 -88 585 -182 105
-38 449 -211 583 -293 107 -66 252 -169 332 -236 30 -25 76 -60 101 -78 68
-46 251 -220 362 -343 122 -136 377 -473 377 -498 0 -4 13 -20 29 -36 17 -15
42 -57 56 -92 14 -36 49 -99 78 -141 49 -73 143 -243 188 -342 12 -25 38 -82
60 -126 21 -45 41 -94 45 -110 4 -16 18 -53 30 -83 13 -29 24 -66 24 -82 0
-16 6 -46 14 -66 29 -80 56 -175 56 -199 0 -14 11 -73 24 -132 26 -115 50
-274 66 -441 12 -126 12 -566 0 -676 -5 -44 -13 -121 -19 -172 -5 -51 -12 -97
-16 -103 -3 -5 -11 -53 -16 -104 -5 -52 -18 -120 -29 -151 -11 -31 -24 -84
-30 -118 -10 -55 -132 -449 -151 -487 -4 -8 -37 -78 -73 -155 -36 -77 -76
-158 -87 -180 -89 -169 -149 -272 -203 -350 -20 -27 -45 -63 -56 -80 -50 -71
-167 -225 -224 -294 -122 -149 -379 -411 -479 -490 -176 -139 -231 -181 -264
-204 -18 -12 -61 -43 -96 -70 -36 -26 -107 -73 -159 -104 -116 -69 -437 -229
-538 -267 -41 -15 -104 -39 -140 -53 -168 -64 -452 -143 -517 -143 -15 0 -53
-7 -83 -15 -30 -8 -117 -22 -194 -30 -76 -9 -150 -21 -165 -28 -38 -16 -629
-22 -718 -7 -37 6 -97 15 -133 20 -36 5 -103 14 -150 20 -47 6 -107 15 -135
20 -27 5 -88 16 -135 24 -47 9 -114 24 -150 35 -36 11 -112 34 -170 51 -58 17
-130 42 -160 55 -30 13 -86 36 -125 51 -82 31 -399 188 -488 241 -106 63 -229
143 -292 190 -33 24 -78 56 -100 71 -199 134 -590 525 -767 766 -134 182 -126
169 -271 426 -109 191 -217 415 -244 505 -8 28 -25 70 -38 95 -12 25 -26 61
-29 80 -4 19 -20 78 -36 130 -44 145 -87 319 -95 380 -3 30 -13 75 -20 100
-14 45 -26 149 -46 390 -6 69 -10 235 -10 370 1 312 19 518 55 640 8 25 22 90
31 145 10 55 24 115 31 132 7 18 21 72 30 120 10 49 28 111 40 139 12 28 26
69 30 90 3 22 15 48 24 59 10 11 22 34 26 50 4 17 19 55 35 85 15 30 54 109
86 175 32 66 82 155 111 199 28 43 52 84 52 90 0 7 19 42 42 79 24 36 55 86
70 110 47 75 214 298 285 381 169 196 439 447 603 560 249 172 437 287 630
387 221 114 754 295 925 314 33 3 83 13 111 20 98 28 209 45 291 45 45 0 104
5 130 10 54 12 375 30 413 23 14 -2 115 -12 225 -22z"/>
<path d="M3523 7833 c9 -2 23 -2 30 0 6 3 -1 5 -18 5 -16 0 -22 -2 -12 -5z"/>
<path d="M3325 7805 c-5 -2 -31 -6 -57 -10 -27 -3 -48 -11 -48 -16 0 -11 65
-2 125 17 30 9 34 12 15 12 -14 0 -29 -1 -35 -3z"/>
<path d="M3830 7751 c-85 -3 -160 -9 -167 -13 -6 -5 -92 -17 -191 -27 -100
-11 -190 -24 -201 -30 -11 -6 -53 -18 -93 -26 -40 -9 -106 -27 -146 -40 -40
-14 -80 -25 -91 -25 -24 0 -99 -27 -251 -90 -69 -29 -147 -61 -175 -72 -86
-34 -284 -135 -333 -171 -26 -19 -74 -49 -107 -66 -99 -51 -287 -179 -380
-259 -182 -156 -344 -315 -416 -407 -21 -27 -59 -75 -84 -105 -131 -159 -212
-276 -270 -389 -14 -28 -39 -66 -55 -85 -34 -38 -67 -98 -180 -326 -96 -195
-163 -373 -210 -560 -33 -131 -39 -154 -54 -225 -8 -38 -22 -100 -30 -137 -9
-37 -16 -89 -16 -115 -1 -44 -12 -112 -38 -232 -10 -45 -8 -399 3 -525 4 -37
11 -78 16 -90 5 -11 15 -84 23 -161 8 -77 26 -187 40 -245 14 -58 26 -121 26
-140 0 -19 13 -74 29 -121 16 -47 34 -112 41 -144 6 -31 27 -94 45 -139 17
-44 38 -99 45 -121 25 -78 136 -322 179 -395 5 -8 21 -40 36 -70 52 -105 227
-377 316 -490 82 -105 533 -555 602 -602 34 -23 82 -58 107 -78 25 -20 74 -54
110 -74 36 -20 106 -64 155 -96 50 -33 124 -77 165 -98 41 -22 102 -53 135
-71 186 -99 552 -227 805 -281 52 -12 131 -30 175 -40 45 -11 94 -20 110 -20
17 0 62 -6 102 -14 86 -16 794 -15 883 2 30 5 95 15 143 21 130 17 602 134
677 169 25 11 126 54 225 95 265 111 555 277 760 437 33 25 68 51 78 56 10 6
68 59 130 120 62 60 128 123 147 140 101 90 424 478 470 564 7 13 31 49 55 80
23 32 48 73 55 91 7 19 24 49 38 68 14 19 55 93 92 165 37 72 76 149 88 171
51 93 122 292 218 605 16 52 33 156 54 320 5 41 14 91 20 110 15 48 33 509 25
650 -3 63 -15 194 -26 290 -17 155 -26 215 -60 415 -5 28 -17 82 -29 120 -11
39 -29 106 -41 150 -11 44 -34 112 -50 150 -17 39 -40 95 -52 125 -28 70 -166
343 -201 395 -14 22 -46 68 -72 103 -25 35 -56 87 -69 115 -13 29 -34 66 -48
83 -13 16 -31 43 -40 59 -21 41 -166 225 -287 366 -92 107 -275 286 -355 348
-19 14 -64 51 -102 81 -65 53 -175 128 -293 200 -30 18 -89 55 -131 80 -281
174 -833 371 -1169 417 -58 8 -134 21 -170 29 -101 22 -475 34 -740 25z m368
-67 c24 -16 52 -64 52 -88 0 -8 -13 -28 -30 -44 l-29 -30 25 -66 c17 -42 44
-86 79 -125 29 -32 54 -63 56 -68 2 -4 22 -17 44 -28 38 -19 40 -23 45 -74 3
-31 10 -56 18 -59 15 -5 16 12 2 39 -13 22 3 59 24 59 22 0 63 -55 70 -94 4
-20 15 -40 26 -46 43 -23 66 -110 33 -128 -14 -9 -14 -10 5 -16 28 -9 82 -72
82 -97 0 -27 -37 -39 -90 -29 -25 5 -49 6 -54 3 -5 -3 -59 -6 -120 -7 -101 -1
-115 -4 -156 -28 -90 -52 -106 -39 -63 49 27 55 123 91 264 99 60 4 109 10
109 13 0 3 -10 6 -22 7 -13 0 -32 2 -43 4 -40 7 -175 -12 -211 -30 -20 -11
-40 -17 -45 -14 -10 6 0 75 14 92 5 6 20 12 32 12 12 0 34 9 49 21 20 16 34
19 54 14 46 -12 95 -11 99 3 3 8 -7 12 -31 12 -19 0 -46 4 -60 10 -49 18 -135
180 -96 180 6 0 10 5 10 11 0 8 -5 7 -16 -2 -12 -10 -24 -10 -63 0 -40 10 -55
10 -83 -2 -31 -13 -38 -13 -60 1 -24 14 -31 14 -80 -2 -43 -13 -58 -24 -72
-49 -65 -124 -93 -152 -157 -152 -22 0 -38 -4 -36 -10 5 -14 67 -19 80 -6 17
17 52 13 72 -9 19 -21 65 -28 65 -10 0 6 -9 10 -19 10 -10 0 -29 8 -42 19 -22
18 -23 19 -5 45 l17 27 32 -24 c20 -16 34 -37 38 -58 3 -19 11 -45 16 -59 10
-24 1 -70 -13 -70 -3 0 -42 9 -87 21 -66 17 -97 19 -164 14 -46 -4 -83 -11
-83 -16 0 -5 45 -9 100 -9 88 0 142 -7 216 -29 32 -9 145 -146 137 -166 -9
-24 15 -35 46 -20 14 7 42 20 61 30 19 9 49 24 65 33 19 10 53 16 92 17 51 0
66 -4 84 -22 31 -30 12 -53 -42 -51 -27 1 -50 -7 -76 -25 -48 -33 -105 -57
-137 -57 -15 0 -27 -7 -30 -17 -6 -21 1 -124 10 -132 3 -3 22 -6 42 -8 20 -1
64 -5 97 -8 58 -7 61 -6 89 23 24 26 28 36 22 67 -7 35 -15 46 -66 86 -25 19
-25 19 -5 35 15 12 34 14 77 10 64 -6 56 -13 73 68 7 32 25 36 108 27 79 -8
108 -30 111 -82 1 -31 5 -34 39 -40 21 -3 50 -16 65 -27 15 -12 41 -29 57 -38
110 -60 119 -135 24 -217 -56 -48 -64 -77 -21 -77 15 0 65 -7 112 -16 47 -8
90 -16 95 -17 6 -1 11 2 13 8 3 9 -37 21 -133 42 -56 11 -56 33 -1 94 25 28
46 58 46 67 0 34 -55 94 -122 133 -80 47 -89 71 -33 95 44 18 70 12 165 -39
100 -53 118 -71 136 -135 17 -58 13 -91 -17 -133 -10 -15 -19 -29 -19 -32 0
-3 36 -4 81 -3 75 1 82 -1 101 -24 17 -21 19 -34 14 -84 -3 -34 -13 -67 -23
-78 -15 -17 -17 -17 -36 -1 -10 10 -26 31 -34 47 -10 20 -18 25 -25 18 -8 -8
-1 -24 25 -56 32 -38 37 -52 37 -93 0 -33 -8 -66 -25 -99 -29 -58 -29 -54 -10
-54 18 0 35 31 35 63 0 35 31 120 49 134 21 16 63 16 86 0 10 -8 26 -43 35
-78 10 -35 23 -82 30 -105 10 -34 9 -47 -4 -77 -8 -21 -19 -37 -25 -37 -5 0
-18 16 -30 35 -11 19 -25 35 -31 35 -15 0 -12 -9 10 -37 28 -36 25 -56 -11
-77 -39 -23 -30 -33 11 -13 30 15 31 15 42 -9 8 -18 9 -31 2 -42 -19 -30 -93
-63 -163 -74 -67 -10 -70 -9 -126 21 -91 50 -161 111 -189 166 -31 60 -33 86
-6 110 19 18 28 55 12 55 -4 0 -12 -10 -17 -22 -13 -29 -54 -36 -72 -12 -23
31 -15 44 43 69 75 33 111 33 124 -1 11 -28 -2 -98 -20 -109 -13 -8 -13 -52 0
-60 6 -3 10 3 10 15 0 11 9 39 21 62 25 50 20 104 -12 131 -29 24 -47 22 -126
-14 -57 -26 -76 -30 -117 -24 -85 11 -137 38 -213 113 -76 74 -87 99 -59 138
14 18 15 18 21 2 10 -25 35 -23 35 2 0 11 9 28 20 37 19 17 27 43 13 43 -4 0
-19 -12 -35 -27 -25 -24 -30 -25 -52 -13 -14 7 -30 26 -37 43 -11 25 -10 34 4
59 9 16 17 38 17 49 0 16 -3 18 -19 10 -15 -8 -21 -27 -26 -81 -6 -62 -10 -72
-37 -91 -36 -26 -29 -39 7 -15 36 24 55 14 55 -28 0 -28 -6 -37 -34 -54 -24
-14 -46 -44 -77 -102 -43 -81 -114 -154 -176 -183 -13 -6 -23 -14 -23 -19 0
-16 -64 -36 -97 -31 -21 3 -33 1 -33 -6 0 -7 20 -11 51 -11 45 0 57 5 126 56
88 65 107 71 111 32 2 -14 9 -31 15 -36 9 -8 12 1 12 34 0 24 -3 44 -7 44 -11
0 -10 38 0 44 4 3 21 30 36 61 16 31 40 64 54 75 23 19 26 19 54 2 17 -9 48
-33 71 -52 39 -35 40 -37 42 -105 1 -68 -9 -115 -27 -115 -4 0 -25 -16 -45
-35 -20 -19 -32 -35 -25 -35 6 0 17 -18 23 -41 14 -45 3 -62 -36 -57 -16 2
-20 10 -19 38 1 19 5 44 8 55 6 18 1 22 -39 33 -62 16 -60 17 -61 -26 -1 -21
-9 -52 -18 -69 -22 -44 -20 -86 5 -109 17 -15 20 -26 14 -62 -7 -49 5 -50 25
-2 12 28 10 32 -14 55 -28 25 -34 63 -14 83 17 17 22 15 57 -14 28 -23 33 -24
73 -13 24 6 61 9 84 5 l42 -5 7 66 c6 57 4 69 -14 94 -25 33 -25 39 -8 63 13
17 15 17 45 2 17 -9 45 -37 62 -62 34 -49 35 -81 3 -117 -23 -25 -6 -35 18
-10 11 11 23 38 26 59 4 32 -1 46 -27 81 -17 23 -50 51 -74 63 -46 22 -56 35
-56 76 0 28 8 29 53 10 18 -7 54 -16 80 -20 29 -5 55 -15 65 -27 9 -11 32 -35
50 -54 17 -19 32 -39 32 -45 0 -6 14 -40 30 -74 l31 -63 -37 -77 c-42 -87 -58
-100 -102 -85 -36 12 -78 -5 -112 -48 -40 -51 6 -123 79 -123 43 0 113 -41
161 -96 37 -43 41 -96 8 -131 -32 -34 -46 -29 -73 32 -16 37 -30 55 -42 55
-10 0 -31 9 -47 19 -29 19 -46 19 -46 0 0 -5 8 -9 18 -9 9 0 34 -11 54 -25 63
-42 77 -136 26 -164 -38 -22 -58 -2 -58 59 0 47 -1 48 -54 80 -30 18 -59 44
-65 57 -6 13 -42 43 -80 68 -86 56 -123 99 -111 131 5 12 6 24 3 27 -10 10 17
71 44 99 15 15 22 28 17 28 -16 0 -71 -63 -79 -90 -12 -39 -25 -50 -51 -44
-13 3 -24 3 -24 -2 0 -13 42 -54 56 -54 16 0 46 -48 38 -61 -11 -18 -165 -85
-240 -105 -46 -12 -104 -18 -174 -18 -96 1 -113 4 -198 36 l-92 35 -13 -26
c-18 -38 -116 -87 -190 -95 -41 -4 -68 -13 -83 -27 -12 -11 -28 -21 -35 -22
-8 -2 -15 -7 -17 -12 -4 -17 38 -65 56 -65 15 0 17 7 14 34 -8 68 60 68 104 1
20 -30 31 -32 39 -5 8 24 32 26 63 4 21 -14 21 -17 7 -44 -8 -16 -15 -38 -15
-50 0 -27 -43 -70 -71 -70 -12 0 -27 7 -33 15 -9 13 -17 14 -45 4 -62 -22
-147 24 -212 115 -17 22 -37 41 -46 42 -31 5 -58 24 -80 59 -27 40 -29 58 -9
74 19 16 47 2 70 -34 21 -31 34 -32 42 -2 3 13 28 41 55 62 43 33 53 36 73 27
18 -8 28 -7 42 2 15 12 12 14 -24 19 -30 5 -46 15 -63 38 l-22 31 -76 -6 c-89
-7 -159 -7 -183 0 -10 3 -32 25 -49 50 -23 34 -29 51 -24 73 10 44 45 70 109
81 58 9 90 25 81 40 -4 7 -77 -8 -154 -32 -27 -8 -36 -7 -49 6 -11 10 -12 16
-4 16 21 0 13 26 -13 38 -13 6 -36 30 -51 53 -22 36 -26 50 -22 100 6 83 28
104 119 113 88 8 149 -7 216 -52 68 -45 83 -84 58 -149 -14 -35 -15 -50 -6
-69 17 -37 14 -47 -24 -91 -39 -45 -44 -71 -17 -79 20 -6 115 -47 188 -80 28
-14 55 -34 61 -47 17 -36 133 -65 133 -33 0 20 -15 29 -110 71 -160 69 -231
105 -236 120 -3 8 4 30 16 50 22 35 70 57 162 71 45 8 74 34 37 34 -13 0 -49
-7 -79 -15 -73 -20 -87 -19 -100 5 -17 32 36 80 87 80 21 0 53 9 71 20 44 27
64 25 133 -11 40 -22 66 -29 83 -25 20 5 29 0 45 -23 25 -35 26 -59 5 -89 -14
-20 -14 -23 1 -29 40 -15 48 70 12 114 -31 36 -40 95 -26 169 15 88 18 94 44
94 l23 0 -30 62 c-64 132 -70 156 -57 209 12 45 11 52 -14 101 -22 44 -27 67
-27 131 0 63 3 79 16 84 22 8 46 -8 62 -41 8 -15 28 -36 45 -46 35 -22 62 -19
119 14 29 17 42 19 65 10 24 -9 28 -15 27 -47 -1 -25 3 -37 12 -37 9 0 15 13
16 35 1 19 2 43 2 52 1 13 -8 17 -43 18 -27 1 -48 7 -54 16 -8 12 -15 9 -42
-18 -36 -36 -68 -42 -103 -17 -39 27 -23 54 33 54 30 0 41 16 24 36 -20 24 4
40 38 25 15 -7 46 -16 70 -20 33 -7 43 -5 43 5 0 8 -12 16 -27 20 -56 12 -99
27 -121 41 -29 18 -37 12 -23 -15 23 -43 -27 -82 -97 -74 -68 7 -80 62 -24
117 14 14 31 36 37 48 17 34 92 30 182 -12 39 -18 77 -31 84 -29 18 6 -25 30
-121 67 -77 30 -89 32 -130 23 -36 -9 -50 -8 -68 4 -19 13 -29 13 -69 1 l-47
-14 -17 -93 c-18 -102 -31 -120 -100 -141 -30 -9 -46 -8 -85 5 -26 9 -72 16
-101 16 -47 0 -55 -3 -65 -24 -11 -25 -60 -52 -76 -42 -5 3 -19 -5 -32 -19
-12 -13 -35 -27 -50 -30 -31 -7 -41 -23 -34 -52 7 -26 -65 -124 -102 -139 -26
-11 -35 -10 -53 2 -35 25 -27 57 24 95 24 19 45 39 45 46 0 7 -13 28 -30 46
-37 43 -37 58 -2 108 33 47 45 52 142 52 l75 0 30 50 c46 79 78 93 208 90 129
-3 147 3 147 54 0 28 8 45 32 70 18 19 33 39 34 46 0 7 2 24 2 38 1 15 20 54
42 87 22 33 40 71 40 85 0 32 26 59 54 55 17 -2 22 -11 24 -45 2 -27 8 -43 16
-43 10 0 12 12 8 45 -5 52 4 68 59 96 43 21 125 105 151 152 10 18 25 55 33
83 l16 52 -31 30 c-45 45 -37 86 23 122 39 24 75 25 105 4z m-84 -483 c16 -18
15 -20 -14 -45 -17 -14 -36 -26 -41 -26 -5 0 -15 -16 -24 -36 -12 -30 -17 -33
-33 -25 -40 21 -45 37 -26 82 29 64 101 91 138 50z m178 -11 c10 -12 18 -31
18 -41 0 -10 14 -32 30 -49 17 -17 30 -37 30 -44 0 -20 -24 -37 -55 -39 -23
-2 -31 6 -56 53 -17 30 -43 65 -60 78 -32 25 -36 41 -16 61 18 19 88 7 109
-19z m-103 -55 c38 -43 64 -92 56 -105 -3 -6 -17 -10 -31 -10 -17 0 -24 -5
-24 -20 0 -15 -44 -117 -78 -181 -1 -3 13 -1 33 5 27 8 33 15 29 29 -6 20 46
136 61 137 6 0 10 -25 10 -56 0 -48 -4 -59 -26 -78 -14 -11 -31 -40 -38 -63
-6 -24 -18 -43 -25 -43 -13 0 -85 80 -103 115 -14 27 -1 58 28 65 18 5 25 15
32 48 5 28 17 48 33 58 28 19 31 34 8 34 -9 0 -32 -17 -50 -37 -30 -36 -34
-37 -50 -21 -24 24 -11 64 40 115 24 24 48 43 54 43 5 0 24 -16 41 -35z m1834
-39 c18 -7 50 -32 72 -55 37 -39 40 -46 39 -96 0 -44 -6 -62 -31 -97 -60 -85
-138 -110 -219 -72 -53 25 -104 90 -104 133 0 145 122 239 243 187z m-3914
-26 c19 -10 101 -114 101 -128 0 -5 16 -31 35 -58 19 -27 35 -52 35 -56 0 -5
-9 -17 -20 -28 -31 -31 -68 -25 -108 17 l-35 37 6 -34 c3 -19 9 -49 13 -67 5
-27 2 -36 -21 -57 -16 -15 -34 -26 -41 -26 -22 0 -53 41 -60 79 -10 62 -14 69
-44 79 -31 11 -60 57 -60 96 0 32 40 79 104 122 54 36 67 40 95 24z m4237
-209 c85 -52 129 -125 112 -186 -23 -84 -86 -112 -170 -77 l-51 21 -19 -24
c-24 -31 -64 -32 -95 -3 -34 32 -29 52 30 116 29 31 67 78 85 104 28 41 56 67
72 68 3 0 19 -9 36 -19z m-2572 -87 c22 -8 20 -29 -6 -64 -18 -25 -21 -44 -23
-136 -2 -98 -4 -109 -25 -126 -12 -10 -37 -18 -56 -18 -19 0 -34 -2 -34 -5 0
-3 14 -33 31 -66 16 -33 29 -70 27 -82 -3 -20 -8 -22 -63 -19 -79 4 -109 25
-113 80 -2 33 1 43 17 52 12 6 21 16 21 21 0 16 -48 2 -97 -29 -32 -20 -42
-33 -43 -53 0 -15 7 -29 15 -33 8 -3 15 -15 15 -26 0 -22 19 -27 37 -9 9 9 18
8 35 -3 13 -9 57 -18 98 -22 95 -8 162 -26 157 -40 -2 -6 9 -36 25 -66 25 -47
29 -62 24 -105 -21 -186 -27 -204 -69 -226 -21 -12 -120 19 -169 53 -18 12
-29 15 -33 7 -4 -6 3 -18 15 -26 l23 -16 -24 -13 c-39 -21 -84 -17 -118 12
-40 33 -41 71 -3 106 39 36 77 43 116 20 17 -10 55 -22 84 -26 47 -6 52 -5 68
19 21 32 11 44 -16 20 -15 -13 -30 -16 -60 -12 -62 8 -90 31 -90 73 0 19 -7
48 -15 63 -15 31 -10 41 28 54 26 10 101 -11 127 -35 29 -27 33 -19 7 14 -30
36 -104 57 -150 40 -45 -16 -136 -5 -164 21 -20 18 -23 30 -23 94 0 77 10 107
65 190 40 61 43 63 99 63 43 0 61 6 94 29 50 37 49 35 57 106 8 83 15 104 34
115 19 11 52 13 75 4z m-1180 -100 c106 -54 120 -67 170 -154 44 -76 47 -85
53 -177 7 -117 35 -196 94 -269 23 -27 44 -50 48 -52 3 -1 11 8 16 20 14 30
31 33 52 9 25 -29 31 -26 35 17 2 30 7 38 25 40 13 2 36 -6 53 -18 25 -18 30
-28 30 -61 0 -33 -4 -41 -26 -49 -14 -6 -44 -10 -67 -10 -30 0 -48 -7 -68 -26
l-27 -26 -69 40 c-131 77 -128 75 -131 112 -1 19 -11 71 -22 115 -10 44 -21
96 -23 116 -3 19 -26 78 -50 130 -62 129 -110 159 -248 159 -60 0 -70 -3 -120
-38 -45 -31 -55 -43 -57 -71 -5 -52 3 -71 63 -146 69 -87 124 -194 134 -266 5
-30 18 -78 30 -107 18 -44 21 -73 21 -177 l0 -125 -28 0 c-16 0 -51 7 -78 15
-27 8 -62 15 -77 15 -31 0 -127 45 -127 59 0 5 -33 45 -73 88 -108 116 -137
156 -163 231 -40 115 -29 220 32 305 34 47 77 77 91 64 4 -4 6 -33 5 -65 -2
-84 71 -336 111 -379 35 -39 51 -27 19 15 -16 20 -34 55 -40 77 -6 22 -23 74
-37 114 -21 58 -28 98 -30 175 -3 91 -1 106 22 154 26 55 60 86 139 128 82 42
116 53 183 53 54 1 74 -4 135 -35z m3204 0 c99 -40 156 -79 221 -155 79 -91
87 -128 59 -274 -15 -76 -49 -158 -89 -216 -10 -14 -21 -46 -25 -70 -7 -40 -6
-43 9 -31 8 7 15 21 14 31 0 9 21 60 48 112 28 54 53 119 59 153 13 70 32 87
69 63 33 -22 61 -134 49 -198 -11 -57 -68 -145 -128 -198 -56 -49 -175 -111
-214 -111 -38 0 -76 33 -101 88 -20 45 -20 53 -9 162 9 93 16 123 37 160 70
118 77 140 76 227 -1 46 -7 92 -13 104 -20 37 -172 88 -224 75 -41 -10 -104
-73 -116 -114 -13 -47 -13 -127 0 -171 13 -45 -2 -108 -33 -139 -21 -20 -31
-23 -60 -18 -51 9 -63 28 -48 75 6 21 11 74 11 117 1 94 20 201 42 233 38 53
181 119 262 120 22 1 68 -11 104 -25z m-4090 -65 c141 -67 162 -82 162 -114 0
-38 -33 -58 -84 -53 -39 5 -48 2 -72 -23 -23 -24 -25 -33 -20 -64 13 -69 -51
-101 -99 -49 -13 14 -27 40 -30 57 -3 18 -24 73 -47 124 -39 90 -40 93 -24
118 14 21 71 65 84 65 1 0 60 -27 130 -61z m2652 -27 c-27 -4 -34 2 -26 24 6
15 8 15 27 -2 l21 -19 -22 -3z m2283 -6 c12 -13 43 -46 70 -74 51 -55 55 -66
30 -94 -24 -27 -58 -22 -98 14 l-36 31 -72 -76 c-40 -43 -80 -77 -89 -77 -30
0 -49 12 -64 42 -18 35 -26 24 108 160 53 54 104 98 113 98 9 0 26 -11 38 -24z
m-2333 -11 c15 -29 33 -31 74 -10 36 19 35 20 47 -11 23 -62 -54 -102 -134
-69 -68 28 -72 31 -75 61 -7 52 63 76 88 29z m1380 -7 c0 -6 -10 -22 -22 -35
-32 -34 -16 -38 35 -9 24 14 57 26 74 26 40 0 76 -38 71 -76 -3 -28 -5 -29
-78 -35 -86 -7 -120 -22 -162 -73 -51 -62 -78 -44 -78 52 0 85 60 162 126 162
19 0 34 -5 34 -12z m-3112 -18 c30 -19 92 -101 92 -124 0 -6 12 -33 25 -61 14
-27 25 -63 25 -80 0 -16 7 -51 15 -77 8 -26 17 -75 21 -108 5 -49 4 -60 -8
-60 -26 0 -54 43 -93 145 -78 204 -106 243 -210 292 -33 16 -71 36 -85 46 -24
18 -25 18 -6 32 32 24 182 20 224 -5z m851 -9 c12 -8 7 -20 -26 -63 -65 -87
-73 -108 -73 -200 0 -115 10 -127 130 -152 28 -6 60 -55 60 -92 0 -18 -13 -33
-47 -57 -26 -17 -55 -40 -65 -49 -22 -22 -42 -23 -74 -2 l-24 17 20 34 c29 50
26 85 -11 112 -31 23 -39 23 -111 6 -20 -6 -36 0 -72 27 -41 30 -45 37 -44 73
1 22 -5 50 -12 62 -12 19 -10 29 18 86 18 35 32 69 32 75 0 16 105 78 190 113
50 20 88 23 109 10z m-892 -155 c29 -34 75 -129 92 -191 19 -67 98 -218 104
-201 10 26 59 18 134 -21 116 -62 114 -59 102 -121 -10 -50 -8 -57 21 -114 25
-47 29 -62 19 -74 -6 -8 -7 -14 -3 -14 5 0 26 -14 46 -30 34 -28 36 -33 27
-60 -9 -23 -18 -31 -47 -35 -21 -3 -52 -13 -70 -21 -18 -8 -34 -14 -37 -14 -2
0 -46 64 -98 143 -93 140 -127 213 -127 269 0 26 -2 28 -20 18 -15 -8 -34 -6
-75 5 -70 21 -112 70 -125 147 -16 99 -60 186 -167 327 -36 48 -43 94 -16 109
22 13 204 -79 240 -122z m437 55 c16 -18 15 -20 -16 -46 -34 -28 -57 -61 -58
-82 0 -6 12 -25 26 -42 29 -35 59 -39 105 -16 28 15 30 15 39 -10 14 -37 12
-57 -6 -83 -34 -49 -118 -70 -153 -38 -34 31 -61 111 -66 194 -5 75 -4 80 23
104 45 42 80 48 106 19z m766 -35 c0 -7 11 -30 25 -50 43 -63 24 -123 -30 -98
-21 10 -25 19 -25 52 0 22 -4 40 -8 40 -12 0 -33 50 -27 61 10 15 65 11 65 -5z
m2084 4 c18 -7 26 -17 26 -34 0 -29 -32 -107 -61 -148 -12 -16 -29 -51 -39
-76 -16 -41 -23 -48 -66 -62 -26 -9 -50 -23 -52 -31 -12 -39 -88 -94 -111 -80
-14 9 -41 93 -41 131 0 15 9 35 20 45 10 9 26 39 35 65 9 26 37 73 63 103 69
81 155 114 226 87z m-2340 -52 c9 -35 7 -45 -9 -52 -23 -8 -42 38 -25 59 17
21 27 19 34 -7z m-2241 -99 c12 -6 38 -26 57 -44 19 -17 55 -43 81 -58 84 -48
102 -130 36 -167 -24 -13 -30 -13 -54 0 -16 9 -32 26 -38 38 -12 28 -20 28
-39 0 -20 -28 -20 -48 -2 -48 8 0 27 -11 43 -24 24 -21 26 -27 18 -52 -6 -16
-21 -31 -38 -37 -24 -8 -39 -2 -115 43 -132 79 -152 96 -152 131 0 35 39 79
69 79 11 0 31 -15 46 -32 l26 -33 19 24 c22 25 26 51 10 51 -20 0 -60 49 -60
74 0 15 11 33 26 45 31 24 37 25 67 10z m5685 -15 c38 -26 55 -70 42 -109 -6
-18 -17 -38 -24 -44 -7 -6 -37 -50 -67 -97 -61 -98 -85 -116 -124 -90 -34 23
-41 42 -26 81 10 27 9 38 -6 64 -14 24 -25 31 -50 31 -45 0 -62 9 -78 40 -13
25 -13 30 6 53 14 19 33 28 67 32 39 6 89 19 182 49 29 9 56 6 78 -10z m-4996
-161 c8 -10 21 -34 28 -53 18 -47 51 -92 132 -175 74 -78 99 -124 124 -235 9
-41 21 -84 26 -95 25 -49 64 -104 74 -105 15 0 65 -57 113 -129 63 -93 126
-169 192 -228 85 -78 94 -64 13 20 -73 75 -146 165 -204 252 -18 28 -54 73
-80 100 -48 50 -100 121 -100 136 0 11 29 39 41 39 5 0 51 -42 102 -93 50 -51
115 -106 142 -122 138 -77 205 -146 240 -246 8 -23 24 -56 34 -73 28 -45 81
-204 81 -241 0 -57 -11 -95 -28 -95 -18 0 -168 75 -193 97 -9 7 -37 23 -62 36
-52 25 -226 205 -274 284 -28 46 -30 51 -16 77 9 17 12 39 8 57 -11 51 -24 42
-24 -16 1 -31 -1 -58 -4 -61 -3 -3 -45 16 -93 42 -95 51 -237 167 -386 315
-101 101 -117 136 -97 223 14 65 31 89 59 84 23 -3 23 -3 96 -153 35 -71 67
-118 111 -165 33 -36 64 -62 68 -58 5 4 -19 36 -52 71 -90 97 -183 290 -183
383 0 45 32 129 53 137 24 10 44 7 59 -10z m1387 -18 c14 -14 14 -19 -4 -53
-38 -70 -115 -47 -115 34 0 22 6 34 18 38 29 8 85 -2 101 -19z m2416 -37 c-7
-65 -19 -98 -34 -98 -5 0 -39 -29 -76 -65 -60 -59 -96 -78 -109 -57 -10 16 22
135 39 145 32 18 94 78 100 98 5 16 44 34 78 38 5 1 6 -27 2 -61z m543 -20
c28 -31 62 -107 62 -141 0 -43 -93 -216 -158 -293 -65 -77 -79 -104 -57 -104
8 0 15 3 15 8 0 4 27 41 60 82 33 41 79 110 101 153 22 43 47 81 55 84 42 16
94 -48 94 -115 0 -45 -107 -198 -194 -279 -107 -98 -150 -119 -262 -127 l-92
-7 -4 63 c-7 91 12 128 112 218 161 145 231 294 184 394 -16 32 -16 35 2 60
23 32 54 33 82 4z m-88 -137 c0 -46 -35 -119 -93 -195 -61 -80 -228 -221 -286
-242 -25 -9 -80 -31 -121 -49 -108 -47 -126 -53 -213 -74 -73 -17 -79 -17 -99
-2 -20 17 -20 19 -5 67 8 27 18 65 21 85 4 20 24 61 45 90 21 30 57 90 80 133
53 101 167 226 207 226 13 0 34 -43 34 -71 0 -12 18 -32 45 -51 25 -18 45 -37
45 -44 0 -15 -134 -135 -205 -184 -36 -25 -45 -36 -33 -38 10 -2 33 7 50 19
49 34 184 153 220 195 17 19 63 51 102 71 38 19 92 57 119 84 47 47 51 49 68
33 12 -11 19 -31 19 -53z m944 58 c55 -25 49 -89 -11 -111 -36 -13 -42 -28
-18 -48 12 -10 20 -9 40 4 36 24 78 20 105 -9 29 -31 23 -46 -36 -87 -51 -36
-200 -108 -223 -108 -10 0 -28 11 -41 25 -20 21 -22 28 -12 50 6 14 27 33 46
42 39 18 49 33 35 54 -7 12 -15 10 -48 -8 -58 -33 -82 -29 -119 19 -21 27 1
55 70 88 33 16 67 35 75 41 11 10 101 57 110 59 1 0 13 -5 27 -11z m-4513 -65
c7 -14 25 -36 40 -48 44 -37 192 -251 226 -326 30 -67 55 -142 57 -170 1 -30
-41 -54 -99 -55 -79 0 -306 139 -446 274 -135 131 -128 154 36 114 63 -16 76
-24 130 -78 89 -90 145 -139 152 -132 3 4 -30 44 -74 89 -116 120 -113 114
-113 243 0 68 4 115 11 122 17 17 64 -3 80 -33z m2049 -41 c0 -7 -10 -23 -22
-35 l-21 -21 -19 23 c-22 28 -23 48 -1 72 16 18 17 18 40 -4 13 -12 23 -27 23
-35z m-203 -40 c-3 -10 -5 -2 -5 17 0 19 2 27 5 18 2 -10 2 -26 0 -35z m-3472
-63 c56 -27 107 -50 113 -50 16 0 52 -41 52 -59 0 -22 -41 -61 -64 -61 -12 0
-36 9 -55 21 -27 16 -36 18 -42 7 -16 -24 -9 -38 25 -52 70 -29 78 -90 15
-117 -26 -10 -34 -9 -68 15 -21 15 -73 42 -114 60 -42 18 -83 39 -92 46 -21
17 -19 56 5 80 25 25 46 25 87 0 l33 -19 11 21 c11 20 0 37 -25 38 -16 0 -56
42 -56 59 0 19 39 61 58 61 8 0 61 -22 117 -50z m4076 -15 c16 -13 56 -38 89
-56 50 -26 61 -37 66 -64 8 -47 -1 -68 -51 -114 -53 -49 -89 -53 -129 -16 -34
31 -33 44 3 51 58 12 46 53 -17 61 -23 3 -49 14 -58 24 -16 17 -16 22 -2 52 9
17 21 44 27 60 13 33 34 34 72 2z m399 -53 c0 -25 -53 -95 -84 -112 -21 -11
-36 -11 -81 -1 -55 12 -56 13 -53 44 3 30 6 32 54 38 28 4 61 12 74 19 22 12
66 27 83 29 4 1 7 -7 7 -17z m-3707 -66 c23 -24 74 -71 114 -105 183 -156 215
-198 298 -396 32 -77 40 -106 33 -124 -8 -23 9 -157 19 -147 3 3 5 44 4 92
l-2 87 28 -18 c15 -10 52 -44 82 -77 53 -58 88 -85 98 -74 3 3 -45 56 -108
118 -94 94 -118 125 -146 186 -40 86 -40 108 2 105 37 -3 87 -39 124 -90 16
-23 65 -79 108 -125 90 -95 123 -139 123 -162 0 -25 47 -154 70 -193 25 -43
25 -60 0 -68 -29 -9 -24 -25 8 -25 15 0 41 -8 57 -19 39 -23 201 -199 236
-254 31 -50 54 -71 69 -62 7 4 -1 21 -22 45 -18 22 -60 72 -93 111 -33 40 -94
109 -136 154 -54 58 -87 106 -117 167 -64 131 -53 170 33 113 20 -14 62 -39
93 -54 98 -50 134 -83 184 -167 94 -161 159 -303 180 -398 30 -136 31 -145 18
-161 -21 -25 -60 -17 -175 36 -120 56 -177 106 -234 205 -17 29 -73 98 -125
154 -95 101 -116 140 -81 154 26 10 16 26 -16 26 -23 0 -60 20 -137 75 -58 41
-115 75 -127 75 -31 0 -151 51 -232 98 -74 44 -184 145 -250 232 -80 106 -142
295 -114 348 22 41 67 21 90 -41 15 -40 87 -144 135 -197 23 -25 51 -58 63
-75 19 -27 22 -28 29 -12 5 14 -8 34 -53 80 -76 78 -136 168 -179 268 -36 80
-42 127 -22 147 18 18 25 15 71 -32z m4727 -21 c22 -24 23 -28 17 -152 -6
-115 -9 -129 -31 -152 -13 -14 -31 -52 -40 -83 -9 -31 -27 -70 -41 -86 -35
-42 -31 -62 5 -27 16 15 37 51 46 79 19 60 54 116 72 116 25 0 52 -81 52 -158
0 -113 1 -112 -233 -263 -127 -81 -184 -111 -251 -129 -45 -12 -50 -12 -62 5
-8 10 -14 31 -14 46 0 15 -3 34 -6 42 -3 9 22 44 68 93 114 123 203 250 238
339 17 44 35 89 40 100 18 41 21 65 10 85 -13 24 11 87 54 138 33 39 45 40 76
7z m-1590 -17 c0 -6 -11 -31 -25 -55 -23 -37 -30 -43 -60 -43 -24 0 -39 7 -49
22 -21 29 -20 30 9 62 20 21 33 26 75 26 31 0 50 -4 50 -12z m2464 -10 c35
-49 5 -84 -83 -97 -35 -6 -66 -13 -69 -16 -14 -13 12 -16 85 -7 91 11 114 3
144 -45 37 -59 13 -87 -111 -126 -41 -13 -93 -34 -114 -45 -35 -19 -42 -20
-66 -7 -15 8 -30 24 -33 36 -8 30 42 79 80 79 41 0 107 20 97 30 -5 4 -43 4
-84 -1 -89 -10 -114 -5 -140 28 -42 54 -16 105 66 129 31 9 79 27 107 39 67
31 101 31 121 3z m-2019 -42 c32 -21 32 -53 2 -127 -74 -179 -284 -431 -415
-498 -23 -12 -42 -24 -42 -26 0 -3 18 -21 39 -41 57 -51 76 -108 76 -229 l0
-100 -68 -139 c-74 -149 -78 -165 -101 -391 -14 -142 -23 -165 -86 -235 -23
-25 -54 -63 -69 -85 -39 -55 -201 -375 -201 -396 0 -27 -33 -61 -52 -54 -24
10 -28 28 -18 91 7 41 24 82 59 139 88 143 150 317 165 462 3 28 14 70 25 92
12 22 21 56 21 76 0 20 7 46 16 60 14 21 14 26 -2 57 -29 58 -43 68 -95 68
-26 0 -83 7 -126 15 -122 24 -625 37 -748 20 -81 -11 -95 -22 -138 -114 l-39
-83 17 -38 c10 -22 29 -43 44 -49 14 -7 42 -35 61 -64 19 -28 45 -60 58 -70
12 -10 22 -29 22 -43 0 -31 14 -31 28 1 7 14 25 34 42 43 41 23 38 36 -6 29
-48 -8 -95 12 -128 55 -31 42 -31 43 -6 75 27 34 17 43 -15 13 -21 -20 -28
-22 -50 -12 -53 24 -41 112 15 112 36 0 37 6 8 30 -21 17 -21 18 -5 44 10 14
30 28 45 31 15 3 47 10 72 15 75 15 442 12 585 -5 200 -24 283 -40 304 -59 16
-14 19 -30 17 -94 -1 -63 -7 -86 -28 -124 -21 -38 -27 -66 -33 -145 -7 -101
-17 -133 -91 -288 -18 -38 -49 -95 -68 -125 -63 -97 -96 -280 -61 -340 8 -14
14 -36 15 -49 0 -18 4 -22 18 -16 9 4 42 10 72 14 34 5 78 20 114 41 54 31 62
33 99 23 34 -10 51 -7 126 18 47 16 107 43 133 59 26 16 64 32 85 36 35 7 36
6 22 -12 -8 -10 -79 -83 -158 -161 -80 -78 -142 -146 -138 -149 7 -7 49 30
207 181 41 39 85 77 96 83 20 11 22 9 27 -50 5 -55 3 -66 -21 -102 -15 -23
-35 -57 -45 -76 -21 -41 -218 -248 -262 -275 -16 -11 -48 -33 -70 -51 -35 -28
-50 -32 -125 -39 -93 -8 -91 -6 -195 -126 -40 -46 -46 -49 -172 -75 -41 -8
-26 -26 16 -19 43 7 56 -3 46 -36 -10 -32 -65 -49 -155 -49 -67 0 -89 4 -128
25 -26 14 -56 25 -67 25 -11 0 -51 11 -88 23 -79 27 -110 64 -105 126 3 31 7
36 30 39 15 2 36 -2 47 -7 14 -8 22 -8 27 0 9 15 -13 27 -66 35 -24 4 -57 15
-73 25 -16 9 -37 15 -46 12 -30 -9 -66 -28 -74 -38 -13 -17 -44 30 -68 102
-12 37 -46 118 -76 180 -53 111 -67 173 -39 173 8 0 38 -16 67 -37 44 -30 138
-69 144 -61 9 12 20 109 14 124 -13 32 -10 74 6 80 14 6 68 -9 163 -42 53 -20
53 -35 2 -98 -34 -41 -40 -55 -39 -90 3 -55 -24 -106 -56 -106 -13 0 -36 -5
-51 -10 -21 -8 -33 -7 -60 9 -38 23 -45 12 -13 -20 17 -17 28 -19 74 -14 l54
7 19 -38 c36 -69 67 -89 160 -103 46 -7 87 -10 90 -6 13 13 -25 25 -79 25 -65
0 -111 25 -141 77 -19 31 -18 32 3 77 18 39 26 46 50 46 16 0 32 -7 38 -17 13
-24 25 -10 17 22 -5 21 -12 25 -40 25 -54 0 -59 47 -12 100 13 14 32 42 44 62
l21 37 -34 20 c-32 18 -115 44 -196 60 -50 11 -56 16 -86 74 -39 78 -76 133
-80 121 -2 -7 20 -52 48 -100 74 -125 103 -261 60 -283 -14 -8 -30 -3 -72 24
-30 19 -76 46 -104 61 -29 15 -98 74 -165 143 -63 64 -158 155 -210 203 -94
85 -95 87 -139 194 -24 60 -62 144 -85 187 -35 66 -39 79 -26 88 23 15 69 2
106 -30 18 -16 39 -33 47 -38 8 -4 22 -23 31 -41 10 -19 45 -66 80 -105 34
-40 72 -88 86 -107 13 -19 44 -60 70 -90 25 -30 63 -79 85 -108 35 -47 55 -63
55 -45 0 8 -52 78 -115 156 -28 34 -62 78 -75 97 -13 19 -49 64 -80 100 -61
70 -80 99 -80 125 0 25 46 9 135 -49 98 -64 220 -130 260 -140 16 -4 40 -15
54 -25 14 -10 43 -24 64 -32 l39 -14 41 47 c39 44 138 118 158 118 10 0 2 84
-11 115 -14 34 -18 62 -9 76 11 19 0 32 -17 18 -8 -6 -14 -25 -14 -42 0 -33
-23 -56 -57 -57 -13 0 -23 -5 -23 -11 0 -8 15 -10 48 -5 45 6 50 4 60 -19 16
-35 8 -48 -56 -96 -32 -24 -72 -58 -90 -76 -39 -38 -42 -39 -84 -17 -30 15
-30 17 -24 70 5 44 1 70 -19 130 -14 41 -25 88 -25 104 0 31 -7 39 -55 71 -16
10 -68 47 -115 82 l-85 63 -7 60 c-4 32 -11 79 -17 104 -5 27 -6 51 0 62 14
26 11 44 -15 75 -13 15 -40 60 -61 98 -21 39 -56 102 -77 140 -55 100 -79 153
-79 173 1 51 15 132 22 132 21 0 123 -121 185 -218 20 -31 54 -76 76 -100 36
-39 113 -187 166 -317 25 -62 52 -187 52 -240 0 -22 5 -47 10 -55 13 -20 12
66 -1 135 -23 124 -23 125 -3 125 11 0 30 -7 42 -16 33 -23 28 2 -8 37 -95 96
-200 301 -200 395 -1 27 -7 60 -15 74 -8 14 -14 44 -15 68 0 24 -5 53 -11 65
-7 11 -18 42 -25 67 -7 25 -27 83 -43 130 -17 46 -28 86 -26 89 9 8 74 -31 80
-48 6 -20 71 -81 155 -146 29 -22 69 -54 89 -71 20 -17 47 -35 61 -38 14 -4
56 -23 93 -43 90 -46 190 -80 307 -104 80 -17 124 -19 275 -16 251 5 407 45
609 153 86 46 106 71 32 40 l-35 -15 -11 35 c-6 19 -18 34 -26 34 -18 0 -18
-10 2 -38 9 -13 14 -29 11 -36 -6 -15 -100 -66 -122 -66 -9 0 -32 -8 -53 -18
-20 -10 -64 -24 -97 -31 -33 -7 -88 -19 -123 -28 -36 -9 -76 -13 -97 -9 -31 6
-35 10 -36 39 0 18 -4 41 -8 52 -7 16 -9 14 -15 -16 -3 -20 -4 -43 0 -52 4
-11 -3 -17 -25 -22 -17 -3 -35 -3 -42 0 -6 4 -47 7 -92 6 -95 -2 -193 13 -257
39 -25 10 -58 21 -73 25 -45 9 -154 64 -160 80 -3 7 1 19 9 25 16 14 19 40 4
40 -6 0 -15 -11 -20 -25 -11 -30 -53 -34 -82 -8 -24 21 -23 37 4 55 14 9 19
19 13 27 -5 10 -13 6 -29 -14 -17 -21 -27 -26 -44 -21 -33 11 -47 44 -28 65
20 22 21 41 1 41 -8 0 -15 -6 -15 -12 -1 -32 -16 -40 -46 -25 -36 19 -119 106
-128 134 -4 12 -18 23 -36 26 -19 4 -41 22 -65 54 -76 100 -160 268 -149 296
8 21 76 49 110 45 22 -2 38 -16 68 -60 38 -55 42 -58 81 -58 46 0 65 -13 65
-46 0 -16 -9 -25 -31 -33 l-30 -10 25 -46 c32 -56 34 -95 7 -95 -10 0 -21 -7
-25 -15 -4 -10 1 -15 15 -15 11 0 22 7 25 15 7 18 41 19 70 2 12 -7 47 -40 79
-75 43 -47 76 -71 134 -98 42 -20 99 -52 127 -70 28 -19 60 -34 71 -34 11 0
32 -9 46 -20 27 -21 82 -26 107 -10 11 7 6 10 -21 10 -74 0 -93 53 -23 66 32
6 39 3 55 -17 10 -13 19 -31 19 -41 0 -19 82 -68 116 -68 12 0 26 5 30 11 7
12 44 8 111 -11 38 -11 45 -10 71 9 34 24 70 27 120 9 31 -12 35 -11 53 12 26
35 24 41 -8 24 -33 -17 -79 -18 -89 -3 -7 12 43 69 61 69 6 0 27 -14 48 -31
33 -28 41 -30 84 -23 26 4 60 15 77 24 17 10 54 25 82 34 51 17 144 77 200
128 133 125 164 159 184 198 12 25 30 54 39 65 21 24 101 153 101 163 0 3 12
19 28 35 23 24 33 28 65 24 21 -3 49 -12 62 -21z m-376 -18 c51 -30 101 -79
101 -99 0 -25 -26 -42 -55 -35 -13 3 -49 30 -80 59 -54 50 -55 53 -40 75 20
27 28 27 74 0z m1371 -80 c0 -32 -23 -104 -57 -178 -65 -142 -271 -373 -383
-428 -36 -18 -70 -32 -76 -32 -6 0 -35 -17 -66 -39 -30 -21 -94 -57 -141 -80
-106 -50 -155 -54 -186 -15 -12 15 -21 30 -21 35 0 4 20 50 44 101 40 84 53
101 137 180 52 47 143 134 203 192 64 61 121 107 135 110 91 17 121 17 127 1
9 -22 -22 -62 -162 -215 -106 -116 -123 -130 -151 -130 -18 0 -33 -4 -33 -10
0 -5 11 -10 24 -10 30 0 86 20 86 31 0 4 45 56 101 115 55 59 120 136 145 170
25 35 68 80 97 101 28 21 76 59 106 86 30 26 58 47 63 47 4 0 8 -15 8 -32z
m-2917 -15 c24 -14 -25 -78 -71 -89 -30 -8 -62 21 -62 57 0 23 6 30 33 38 29
8 80 6 100 -6z m1193 -34 c17 -10 38 -27 48 -38 17 -18 16 -20 -20 -48 -20
-15 -53 -42 -73 -59 -20 -17 -50 -35 -67 -38 -17 -4 -41 -16 -52 -27 l-21 -19
34 -76 c19 -42 35 -82 35 -89 0 -6 -11 -22 -25 -35 -24 -23 -26 -23 -59 -7
-34 16 -34 16 -41 101 -4 47 -11 86 -16 86 -4 0 -19 -5 -33 -11 -21 -10 -24
-17 -19 -43 3 -17 14 -51 24 -75 l19 -44 -27 -29 c-15 -15 -32 -28 -38 -28 -6
0 -26 15 -44 34 -32 33 -33 36 -21 70 6 20 10 43 7 50 -3 8 0 19 6 25 18 18 4
21 -104 25 -57 2 -117 8 -132 15 -16 6 -43 11 -61 11 -20 0 -40 8 -51 20 -10
11 -31 20 -46 20 -36 0 -139 50 -139 67 0 15 31 33 57 33 10 0 26 14 35 30 10
17 25 33 34 37 8 3 53 -7 97 -23 71 -25 96 -29 192 -29 133 0 213 19 340 80
94 45 108 46 161 14z m1164 19 c0 -7 -33 -44 -72 -83 -79 -78 -233 -253 -262
-298 -37 -59 -7 -34 85 70 133 152 303 323 320 323 10 0 19 -19 26 -57 l11
-58 -202 -200 c-155 -152 -210 -213 -231 -255 -46 -93 -67 -113 -172 -167
-121 -63 -161 -72 -187 -44 -19 20 -19 23 2 103 11 46 24 97 27 113 3 17 39
82 80 145 41 63 98 153 127 199 58 93 86 115 164 131 47 10 209 72 222 85 11
10 62 5 62 -7z m-4115 -184 c26 -53 65 -108 110 -158 153 -168 243 -289 269
-363 8 -22 40 -84 72 -139 71 -123 84 -147 84 -157 0 -17 -156 0 -197 22 -45
22 -242 178 -316 250 -78 74 -157 226 -157 301 0 32 30 63 53 54 9 -3 37 -40
63 -82 77 -125 184 -254 184 -222 0 7 -26 45 -58 84 -52 64 -103 140 -160 236
-63 109 -69 267 -9 258 16 -2 32 -24 62 -84z m3105 40 c51 -48 65 -89 35 -100
-21 -8 -19 -28 5 -49 27 -24 25 -39 -7 -65 l-28 -22 -37 44 c-21 23 -38 48
-38 54 0 6 -7 17 -15 24 -28 23 -17 -15 20 -69 19 -28 35 -56 35 -64 0 -15
-81 -57 -110 -57 -24 0 -25 8 -5 37 14 19 12 27 -15 85 -31 66 -37 106 -20
139 13 23 99 88 118 89 7 0 35 -21 62 -46z m-1776 18 c34 -38 112 -220 152
-357 8 -27 22 -62 30 -77 7 -14 14 -44 14 -66 0 -22 7 -56 15 -75 28 -67 15
-107 -27 -85 -10 5 -40 41 -68 81 -28 40 -66 91 -85 115 -19 24 -38 48 -42 55
-5 7 -24 24 -44 39 -25 19 -43 44 -58 85 -12 32 -36 86 -52 120 -34 69 -35
106 -4 111 24 3 67 -40 118 -118 75 -114 90 -135 94 -123 3 7 -4 25 -15 40
-11 15 -31 49 -46 75 -15 26 -52 74 -82 108 -37 40 -52 61 -43 64 83 29 122
31 143 8z m-2064 -72 c11 -11 20 -28 20 -38 0 -26 -34 -59 -69 -67 -44 -9 -57
-77 -21 -110 32 -29 35 -54 9 -81 -12 -13 -28 -24 -34 -24 -13 0 -212 143
-252 181 -28 26 -28 30 -3 80 24 46 40 54 135 67 128 17 193 14 215 -8z m6593
-49 c32 -39 44 -119 22 -160 -21 -41 -53 -61 -98 -61 -23 0 -49 -8 -67 -21
-62 -47 -152 6 -180 105 -16 58 -10 87 22 105 25 15 29 14 52 -8 15 -14 26
-36 26 -51 0 -14 7 -35 15 -46 15 -18 16 -16 10 21 -5 33 -2 44 14 59 27 24
51 17 78 -23 19 -28 24 -31 29 -16 4 10 0 30 -10 45 -19 33 -20 52 -4 68 22
22 65 14 91 -17z m-2973 -1 c55 -112 59 -123 50 -141 -15 -26 -25 -30 -53 -20
-18 7 -31 26 -46 66 -24 64 -26 86 -9 103 16 16 49 11 58 -8z m-675 -24 c17
-12 18 -18 6 -71 -7 -31 -21 -65 -32 -76 -26 -26 -65 -24 -84 5 -18 27 -12 50
30 116 27 42 48 49 80 26z m123 -38 c7 -7 12 -39 12 -74 0 -59 -2 -64 -31 -85
-36 -25 -54 -20 -79 24 -15 27 -15 28 21 125 9 25 56 31 77 10z m137 -6 c6 -4
16 -34 23 -67 12 -58 11 -60 -15 -87 -34 -35 -43 -35 -77 1 -27 28 -27 29 -16
89 12 60 19 68 60 71 8 0 20 -3 25 -7z m-387 -114 c7 -7 12 -20 12 -30 0 -22
-47 -25 -75 -4 -16 12 -17 16 -6 30 16 19 52 21 69 4z m2824 -5 c9 -10 21 -41
27 -68 11 -46 10 -55 -14 -108 -14 -32 -42 -75 -63 -96 -20 -20 -66 -68 -101
-105 -77 -80 -132 -126 -186 -154 -54 -29 -91 -59 -82 -68 4 -4 15 0 24 9 10
8 46 30 79 47 61 31 141 100 224 195 58 66 67 71 91 49 22 -19 24 -51 8 -124
-12 -55 -46 -103 -90 -126 -16 -8 -43 -27 -61 -43 -35 -30 -104 -61 -253 -116
-49 -18 -112 -42 -138 -55 -55 -25 -89 -21 -103 11 -8 18 0 41 41 120 27 54
71 134 98 177 26 44 47 90 47 102 0 14 24 51 62 94 71 81 71 81 187 158 47 31
103 70 125 87 44 36 57 38 78 14z m-2003 -12 c22 -14 5 -39 -36 -50 -47 -13
-60 -1 -38 33 18 26 48 33 74 17z m-511 -54 c30 -28 28 -43 -10 -56 -26 -9
-37 -8 -62 7 -39 23 -39 37 -2 62 31 20 38 19 74 -13z m174 7 c21 -15 38 -32
38 -39 0 -31 -100 -47 -136 -21 -18 14 -18 16 15 50 19 20 37 36 40 36 3 0 22
-12 43 -26z m-2084 -108 c31 -13 73 -26 92 -30 97 -18 310 -269 310 -366 0
-17 11 -53 25 -80 45 -89 29 -116 -51 -81 -25 12 -53 21 -61 21 -45 0 -229
115 -245 155 -7 16 -38 71 -69 123 -54 88 -76 138 -65 149 10 11 57 -25 146
-112 94 -92 163 -145 187 -145 22 0 14 18 -11 24 -13 3 -80 61 -150 128 -69
67 -139 129 -155 139 -42 25 -62 58 -50 81 13 24 28 23 97 -6z m-573 -26 c31
-51 122 -146 210 -218 175 -143 255 -238 378 -447 44 -74 82 -169 113 -282 5
-18 24 -16 24 3 0 8 -9 36 -19 62 -11 26 -22 59 -25 75 -5 23 -3 27 15 27 15
0 59 -38 137 -120 63 -66 118 -117 123 -114 12 7 -193 226 -253 269 -51 37
-62 69 -28 78 13 3 46 -12 98 -46 42 -27 123 -72 180 -99 105 -49 202 -125
202 -157 0 -9 15 -39 33 -66 41 -62 64 -105 87 -170 71 -200 72 -201 16 -216
-23 -7 -58 7 -205 81 -234 118 -339 201 -425 338 -29 46 -51 59 -206 117 -87
33 -148 77 -275 196 -51 48 -101 91 -112 97 -53 29 -170 283 -147 320 21 32
47 18 108 -58 34 -41 122 -134 196 -207 127 -125 182 -165 195 -142 4 5 -1 9
-11 9 -9 0 -90 73 -181 162 -163 162 -271 297 -299 377 -21 57 -17 123 7 150
26 27 38 24 64 -19z m4415 -2 c6 -24 13 -49 15 -55 2 -7 19 -13 37 -13 66 0
66 -14 2 -76 -130 -126 -254 -234 -354 -308 -127 -95 -125 -94 -117 -102 14
-14 284 194 372 286 43 45 117 100 134 100 14 0 1 -30 -77 -169 -83 -151 -95
-166 -141 -184 -21 -9 -71 -37 -110 -62 -96 -62 -173 -95 -222 -95 -22 0 -56
-7 -76 -15 -41 -17 -101 -5 -129 26 -15 17 -15 21 -1 43 32 48 234 265 404
432 95 94 173 179 173 187 0 19 37 47 62 47 12 0 21 -13 28 -42z m1435 -13
c39 -9 92 -20 120 -26 59 -11 84 -33 91 -80 8 -50 -19 -78 -150 -149 -138 -75
-140 -76 -166 -48 -28 30 -24 79 8 93 12 5 22 17 22 26 0 39 -14 81 -29 86
-33 12 -51 37 -51 69 0 21 7 37 18 44 18 11 23 10 137 -15z m-1578 -29 c-10
-14 -45 -49 -79 -77 -70 -58 -235 -228 -377 -389 -51 -58 -126 -141 -166 -185
-40 -44 -91 -102 -112 -130 -50 -63 -68 -77 -96 -79 -12 0 -23 -8 -25 -17 -3
-14 5 -13 46 7 37 17 70 48 133 123 46 55 92 103 102 106 10 4 28 -2 43 -14
15 -12 34 -21 43 -21 10 0 25 -6 34 -12 15 -12 13 -19 -28 -78 -114 -163 -392
-400 -469 -400 -17 0 -46 -9 -64 -20 -18 -11 -41 -20 -52 -20 -29 0 -26 48 5
110 19 38 23 55 16 74 -8 20 -1 41 40 122 28 55 60 109 73 120 12 12 65 77
117 144 52 68 111 143 132 167 20 24 37 49 37 54 0 5 45 57 101 114 86 88 129
142 129 162 0 2 -36 -32 -81 -76 -80 -80 -93 -89 -103 -73 -7 12 29 62 110
150 39 43 42 45 63 30 51 -36 196 12 348 113 68 46 111 43 80 -5z m-5182 -71
c35 -35 38 -43 39 -100 1 -27 4 -30 38 -33 40 -3 68 -30 68 -65 0 -21 -46 -71
-59 -63 -9 6 -123 24 -206 32 -56 6 -95 34 -95 69 0 48 33 130 65 162 27 27
41 33 74 33 33 0 47 -6 76 -35z m4707 13 c3 -7 -4 -22 -15 -33 -10 -11 -40
-47 -65 -79 -26 -32 -64 -79 -86 -102 -37 -43 -39 -51 -14 -85 9 -14 -1 -33
-63 -113 -41 -54 -93 -123 -116 -154 -69 -95 -94 -122 -114 -122 -32 0 -37 29
-24 130 13 98 27 139 114 323 54 114 79 140 151 153 19 4 76 26 125 50 100 49
102 49 107 32z m-2735 -290 c17 -18 47 -58 67 -88 19 -30 51 -76 70 -102 33
-46 43 -78 82 -258 12 -55 12 -66 0 -78 -21 -21 -85 -6 -148 33 -29 19 -102
58 -163 88 -182 89 -465 312 -465 366 0 26 16 30 90 22 54 -6 80 -16 155 -62
70 -43 112 -61 185 -79 52 -12 101 -25 108 -28 19 -7 6 80 -19 130 -22 43 -25
88 -6 88 7 0 27 -15 44 -32z m3909 -77 c-4 -40 -16 -79 -31 -106 -14 -23 -25
-48 -25 -55 0 -7 -12 -27 -27 -46 -16 -18 -39 -47 -51 -64 -13 -17 -38 -38
-55 -46 -35 -18 -141 -122 -175 -171 -14 -20 -37 -36 -58 -42 -20 -5 -51 -21
-69 -36 -19 -14 -92 -55 -162 -90 -113 -58 -131 -64 -150 -54 -13 7 -23 17
-23 23 1 58 94 256 172 368 119 168 163 211 238 233 14 4 64 23 112 41 97 38
108 40 108 21 0 -40 -87 -156 -199 -265 -76 -74 -76 -94 0 -26 94 83 178 185
215 260 38 76 69 113 119 138 27 14 31 14 48 -2 17 -15 18 -26 13 -81z m1103
15 c12 -11 21 -31 21 -46 0 -46 -25 -58 -135 -63 -99 -4 -100 -5 -103 -30 l-3
-26 100 6 c84 5 104 3 125 -11 26 -17 35 -57 18 -84 -13 -20 -71 -32 -162 -32
-55 -1 -94 -6 -110 -15 -38 -22 -78 -18 -105 10 -33 32 -31 56 6 90 32 28 32
28 25 105 -5 66 -4 79 11 92 26 22 31 23 167 23 108 0 127 -3 145 -19z m-1741
-126 c2 -20 -12 -42 -65 -97 -37 -39 -89 -89 -114 -110 -153 -126 -211 -179
-224 -204 -14 -25 -14 -28 0 -23 8 4 15 10 15 15 0 7 102 97 214 187 23 19 78
69 124 113 77 74 122 98 122 65 0 -8 -10 -23 -22 -33 -34 -27 -68 -77 -133
-193 -78 -140 -100 -167 -143 -181 -20 -6 -57 -22 -82 -34 -25 -13 -69 -31
-98 -40 -40 -13 -52 -22 -52 -37 0 -26 -302 -327 -350 -349 -82 -38 -128 -62
-172 -87 -67 -39 -181 -76 -212 -68 -66 16 3 160 151 319 40 43 73 82 73 86 0
5 42 42 93 82 131 104 270 241 337 334 32 44 68 90 80 102 29 29 78 40 97 21
12 -13 4 -27 -63 -113 -105 -135 -134 -183 -134 -223 0 -18 -4 -41 -10 -51
-18 -36 -319 -300 -406 -359 -43 -29 -44 -48 -1 -26 36 18 85 57 236 189 192
166 209 182 201 195 -22 36 22 126 125 250 25 30 60 78 79 106 26 38 50 59 98
84 34 18 83 47 108 65 54 39 68 44 100 42 19 -2 26 -8 28 -27z m-4166 -134
c57 -52 126 -123 153 -157 67 -83 129 -144 334 -333 173 -158 236 -224 364
-379 96 -116 141 -183 132 -197 -12 -20 -110 -6 -210 29 -49 18 -107 36 -127
40 -43 9 -186 98 -383 237 -123 87 -248 252 -281 372 -16 58 -16 64 -1 79 25
25 48 8 119 -87 55 -74 222 -229 291 -271 35 -20 6 14 -63 75 -115 103 -191
180 -228 231 -19 28 -50 66 -69 86 -42 45 -173 293 -173 329 0 64 24 55 142
-54z m-1198 49 c27 -19 55 -35 61 -35 6 0 34 16 61 35 72 51 124 45 124 -16 0
-33 -33 -77 -62 -81 -33 -5 -32 -24 2 -38 63 -26 89 -90 51 -124 -24 -22 -50
-15 -112 30 -52 38 -70 42 -90 18 -13 -16 -94 -74 -103 -74 -17 0 -36 37 -36
72 0 44 22 78 49 78 9 0 23 5 31 10 13 9 13 11 0 20 -8 5 -25 10 -36 10 -25 0
-54 39 -54 71 0 27 27 59 49 59 9 0 38 -16 65 -35z m2402 -20 c81 -42 100 -58
125 -105 22 -42 107 -135 116 -127 3 4 -17 35 -46 69 -28 35 -51 71 -51 80 0
45 91 2 190 -90 75 -69 151 -210 152 -285 2 -55 -12 -71 -52 -61 -50 11 -166
70 -235 119 -38 28 -88 61 -109 73 -97 57 -156 123 -156 174 0 13 -9 52 -20
87 -21 66 -19 101 5 101 7 0 44 -16 81 -35z m3446 -175 c-2 -43 -14 -80 -56
-165 -49 -102 -62 -119 -179 -240 -70 -71 -127 -133 -127 -136 0 -10 -389
-361 -429 -388 -20 -13 -47 -34 -61 -46 -14 -13 -35 -26 -47 -29 -51 -16 -70
108 -30 199 26 60 122 192 232 321 44 52 93 110 109 129 19 24 61 51 123 82
52 25 107 56 123 69 52 45 110 54 110 19 0 -39 -127 -190 -256 -305 -51 -44
-104 -99 -120 -121 -15 -23 -38 -45 -51 -50 -22 -8 -33 -39 -14 -39 4 0 42 35
82 78 41 42 112 111 158 152 144 128 206 218 240 346 8 30 30 59 86 113 91 89
111 91 107 11z m1134 -30 c121 -13 166 -49 130 -105 -18 -27 -62 -33 -98 -14
-11 6 -34 15 -49 19 -54 16 -30 -9 44 -46 39 -20 80 -43 90 -52 40 -36 4 -116
-58 -128 -18 -3 -71 1 -117 10 -45 9 -96 17 -112 18 -17 2 -37 13 -48 29 -16
22 -17 29 -7 52 16 36 40 41 102 22 28 -9 58 -18 65 -20 6 -3 12 0 12 6 0 5
-29 23 -63 38 -35 16 -73 41 -85 56 -28 35 -28 85 -1 114 19 20 28 22 65 16
24 -3 83 -10 130 -15z m-5456 -37 c94 -33 122 -52 162 -111 81 -118 205 -219
355 -288 137 -64 200 -107 221 -151 9 -21 29 -56 44 -77 16 -21 28 -44 28 -50
0 -6 14 -40 30 -74 37 -79 40 -122 7 -122 -12 0 -38 11 -57 23 -19 13 -48 27
-64 31 -41 10 -80 45 -151 135 -142 181 -372 415 -586 593 -50 43 -89 91 -89
113 0 10 26 5 100 -22z m2680 -243 c-20 -64 -21 -70 -6 -99 18 -33 25 -33 85
12 27 20 81 23 81 5 0 -7 -27 -40 -59 -73 -79 -80 -157 -195 -176 -260 -14
-48 -19 -54 -62 -73 -77 -32 -111 -37 -134 -16 -23 20 -26 76 -5 93 8 7 24 44
36 84 12 40 34 92 50 117 15 25 51 92 80 149 29 57 69 120 89 139 35 36 36 36
39 13 2 -13 -6 -54 -18 -91z m960 85 c0 -27 -22 -63 -48 -76 -41 -22 -224
-231 -210 -240 7 -5 18 3 29 20 10 16 26 35 37 43 11 7 42 40 68 72 26 31 59
63 74 71 24 12 30 11 63 -8 43 -27 43 -27 -57 -144 -39 -45 -97 -116 -129
-157 -63 -82 -162 -160 -223 -175 -22 -5 -66 -21 -99 -35 -75 -32 -95 -33 -96
-3 -2 82 1 127 13 158 15 42 162 212 249 289 33 28 66 65 75 81 11 23 38 41
107 74 96 45 147 56 147 30z m-4947 -139 c35 -14 94 -94 97 -131 7 -69 -1
-105 -31 -140 -40 -45 -71 -61 -134 -69 -100 -13 -172 52 -183 165 -6 62 27
133 71 156 68 35 128 41 180 19z m5461 -32 c30 -11 18 -57 -33 -127 -27 -38
-63 -79 -81 -92 -18 -14 -47 -39 -64 -56 -17 -18 -54 -49 -82 -70 -57 -42
-131 -126 -120 -136 3 -4 22 12 41 35 20 22 63 61 96 86 34 26 70 58 81 71 30
38 76 59 94 44 23 -19 10 -54 -49 -134 -103 -141 -164 -198 -231 -216 -22 -6
-63 -26 -91 -44 -27 -19 -62 -37 -76 -40 -26 -6 -26 -6 -32 67 -3 49 -1 81 8
98 7 14 69 77 136 140 68 63 182 174 253 247 71 73 130 133 131 133 2 0 10 -3
19 -6z m1152 -80 c41 -31 50 -35 71 -25 52 24 94 12 122 -33 19 -30 19 -38 8
-129 -17 -132 -21 -135 -128 -107 -46 12 -109 26 -139 30 -86 14 -110 61 -59
115 17 17 23 18 61 8 65 -18 64 0 -2 42 -62 39 -73 80 -34 120 24 23 48 18
100 -21z m-4454 -131 c10 -9 18 -20 18 -24 0 -11 73 -128 255 -409 91 -140
162 -263 180 -312 5 -15 18 -35 27 -44 16 -16 16 -14 2 26 -20 56 -125 248
-181 329 -92 133 -263 414 -263 432 0 45 85 13 135 -51 11 -14 61 -68 111
-120 103 -107 134 -149 134 -178 0 -19 83 -215 101 -238 5 -6 21 -46 35 -90
15 -43 35 -96 46 -117 19 -38 19 -57 2 -149 -7 -37 -24 -35 -103 9 -91 51
-247 210 -345 352 -103 149 -116 179 -116 267 0 50 -4 75 -15 84 -8 6 -24 37
-35 68 -12 32 -31 73 -44 92 -32 51 -39 72 -24 82 21 13 60 9 80 -9z m-883
-62 c20 -15 74 -52 121 -81 47 -29 100 -62 118 -74 18 -12 49 -47 68 -79 31
-54 95 -139 192 -258 20 -25 64 -81 96 -123 33 -42 65 -76 73 -76 14 0 -13 40
-132 190 -192 243 -221 290 -179 290 9 0 48 -11 87 -25 38 -14 108 -34 156
-45 54 -12 90 -26 99 -37 23 -30 87 -145 115 -203 110 -235 110 -236 111 -318
l1 -77 -35 1 c-99 3 -223 56 -390 168 -109 73 -165 123 -212 191 -23 33 -66
87 -96 120 -93 104 -282 406 -282 451 0 23 3 25 27 19 15 -3 43 -19 62 -34z
m3292 -203 c-5 -13 -60 -100 -123 -195 -148 -224 -179 -275 -174 -280 8 -8 42
38 109 142 35 56 78 121 96 145 18 25 52 73 77 108 48 67 78 80 93 40 28 -75
43 -139 37 -162 -3 -14 -19 -40 -34 -58 -16 -18 -45 -58 -67 -88 -53 -76 -123
-148 -165 -170 -19 -10 -66 -51 -105 -91 -164 -170 -237 -234 -307 -270 -59
-31 -75 -36 -101 -28 -17 5 -35 13 -41 19 -23 23 115 367 176 438 15 18 28 39
28 46 0 13 88 124 160 201 20 22 49 61 63 87 31 53 70 88 101 89 11 0 44 11
71 24 28 13 65 24 82 24 30 1 32 -1 24 -21z m-2474 -77 c22 -16 53 -48 69 -71
28 -40 106 -151 186 -263 21 -29 69 -85 107 -124 75 -77 136 -164 162 -229 9
-22 29 -61 46 -85 17 -24 43 -68 59 -97 16 -29 39 -72 51 -94 12 -22 28 -48
36 -57 32 -38 89 -145 89 -165 0 -37 -21 -76 -39 -75 -27 1 -133 59 -199 109
-79 59 -251 227 -305 297 -24 31 -66 79 -92 107 -52 55 -52 59 -31 169 10 50
43 31 104 -60 63 -94 70 -102 70 -81 0 18 -77 133 -155 233 -31 39 -69 99 -86
135 -18 36 -40 83 -51 105 -10 22 -42 84 -71 137 -50 95 -51 97 -32 118 24 27
34 25 82 -9z m2797 -42 c3 -17 6 -48 6 -69 0 -38 -24 -72 -174 -244 -27 -31
-46 -60 -42 -63 8 -8 92 79 184 190 35 42 72 77 81 77 10 0 46 18 81 41 35 22
78 43 97 46 29 5 33 3 33 -16 0 -12 -19 -43 -43 -69 -24 -26 -74 -89 -111
-139 -37 -51 -87 -107 -109 -125 -23 -17 -60 -48 -82 -69 -60 -56 -157 -117
-216 -138 -30 -10 -80 -28 -112 -40 -57 -21 -107 -20 -107 2 0 6 18 40 39 76
22 36 42 80 46 97 3 18 15 40 27 50 11 11 47 55 79 99 113 155 164 217 220
271 67 63 94 69 103 23z m-924 -386 c0 -10 -12 -43 -26 -73 -14 -30 -41 -101
-60 -158 -45 -136 -49 -142 -141 -243 -43 -47 -107 -121 -143 -164 -60 -71
-169 -175 -184 -175 -10 0 -167 -91 -202 -117 -37 -27 -51 -29 -76 -6 -23 21
-23 26 7 98 13 33 25 74 25 91 0 19 8 38 21 50 12 10 34 46 50 79 16 33 44 76
63 95 40 43 98 125 124 177 11 21 41 54 66 73 41 30 46 38 41 62 -5 22 -3 28
9 28 9 0 52 38 96 84 75 77 84 84 137 95 74 15 103 14 103 -2 0 -17 -39 -69
-129 -172 -38 -44 -109 -132 -157 -195 -48 -63 -98 -123 -111 -133 -22 -18
-32 -42 -14 -35 12 4 104 109 156 178 22 29 76 94 120 144 44 51 100 119 124
152 25 32 52 65 60 72 21 17 41 15 41 -5z m-1032 -11 c9 -6 10 -25 6 -70 -8
-71 -24 -80 -65 -36 -13 14 -36 32 -51 40 -38 20 -35 39 10 57 41 18 80 21
100 9z m1498 -59 c-4 -16 -23 -52 -43 -82 -19 -30 -36 -68 -37 -85 -1 -30 1
-31 42 -34 24 -2 63 4 85 12 23 8 60 21 82 29 43 16 75 8 75 -19 0 -20 -198
-212 -236 -229 -17 -7 -81 -51 -140 -98 -125 -97 -222 -161 -311 -206 -68 -34
-91 -38 -99 -18 -8 23 12 62 119 225 57 86 110 172 117 191 7 18 50 70 94 115
45 45 98 101 118 125 47 53 106 101 125 101 11 0 13 -7 9 -27z m-1554 -80 c28
-27 67 -73 86 -103 33 -51 122 -166 210 -269 20 -24 40 -50 44 -57 11 -18 -17
-79 -46 -97 -24 -16 -26 -16 -51 11 -41 44 -245 303 -273 347 -14 22 -36 53
-49 69 -20 24 -23 36 -18 70 15 93 24 96 97 29z m-70 -153 c67 -91 147 -195
190 -246 84 -99 148 -193 148 -215 0 -32 -41 -103 -62 -107 -9 -2 -24 11 -37
31 -11 19 -39 47 -62 63 -46 32 -138 149 -184 235 -16 31 -43 81 -59 110 -16
30 -46 78 -67 108 -64 89 -46 134 41 102 36 -13 55 -30 92 -81z m255 65 c19
-8 47 -15 62 -15 14 0 51 -12 81 -26 38 -18 75 -27 118 -28 98 -3 100 -15 20
-126 -45 -62 -86 -100 -108 -100 -15 0 -90 68 -90 83 0 5 -31 43 -69 86 -73
80 -99 126 -78 135 20 8 26 7 64 -9z m-779 -144 c15 -16 68 -75 117 -131 90
-102 298 -280 344 -295 14 -4 38 -16 55 -26 17 -11 45 -19 62 -19 28 0 34 5
48 41 l16 40 41 -22 c36 -21 89 -77 89 -95 0 -4 -10 -18 -22 -31 -23 -24 -74
-31 -107 -14 -14 8 -25 3 -50 -25 -38 -40 -78 -45 -129 -14 -18 11 -48 20 -67
20 -30 0 -37 -5 -55 -40 -22 -43 -45 -60 -83 -60 -33 0 -76 36 -93 76 -13 31
-15 32 -44 22 -54 -18 -117 25 -135 93 -4 13 -21 33 -38 44 -31 20 -32 22 -31
95 0 41 4 135 8 209 8 167 21 190 74 132z m1762 -20 c0 -6 -5 -13 -11 -16 -5
-4 -14 -17 -19 -29 -4 -12 -47 -85 -94 -162 -48 -76 -89 -150 -92 -164 -3 -14
-8 -35 -12 -47 -11 -34 -133 -136 -206 -171 -36 -18 -66 -36 -66 -40 0 -4 -27
-35 -59 -69 -33 -35 -69 -84 -81 -109 -13 -25 -40 -66 -62 -91 -42 -49 -165
-153 -180 -153 -6 0 -21 -9 -35 -20 -60 -47 -93 -17 -93 83 1 100 27 192 93
323 39 78 85 121 181 173 62 33 96 39 96 18 0 -17 -92 -174 -124 -214 -19 -23
-23 -34 -14 -39 6 -4 14 -2 16 5 2 6 15 25 28 40 13 16 24 32 24 36 0 10 61
99 78 113 26 20 32 14 32 -33 0 -29 4 -45 13 -45 8 0 12 22 14 74 0 47 7 85
18 107 31 62 224 307 298 378 l46 44 45 -13 c25 -7 46 -18 46 -25 0 -6 -23
-40 -50 -74 -28 -35 -57 -76 -65 -92 -9 -16 -19 -29 -24 -29 -12 0 -22 -28
-12 -34 4 -3 23 16 41 42 57 80 204 242 221 242 5 0 9 -4 9 -9z m394 -133 c3
-13 7 -43 9 -68 2 -25 11 -74 20 -110 8 -36 23 -103 32 -150 10 -53 26 -99 42
-122 16 -24 23 -44 18 -57 -12 -40 -76 -38 -115 5 l-23 23 -27 -19 c-50 -35
-136 -19 -177 33 -23 30 -33 26 -33 -14 0 -57 -90 -113 -152 -94 -38 12 -88
55 -106 91 -16 34 -50 53 -71 39 -16 -9 -88 13 -94 30 -10 25 25 53 138 110
109 56 266 156 315 201 14 12 56 45 95 73 78 57 121 67 129 29z m-832 -580
c46 -50 84 -124 104 -204 27 -104 28 -124 8 -139 -25 -19 -48 -13 -120 30 -95
58 -184 153 -184 199 0 21 119 156 137 156 9 0 33 -19 55 -42z m-1858 -45 c28
-14 57 -33 64 -42 20 -26 6 -174 -24 -240 -28 -63 -28 -61 -10 -61 7 0 19 12
25 28 17 40 157 165 186 165 13 0 36 -9 52 -20 15 -11 39 -24 53 -28 30 -9 70
-44 70 -61 0 -18 -142 -294 -179 -348 -43 -62 -58 -69 -107 -47 -54 25 -68 44
-60 85 6 32 21 55 119 187 31 43 47 79 34 79 -2 0 -28 -30 -57 -67 -74 -94
-140 -162 -173 -179 -26 -14 -32 -13 -74 8 -25 13 -52 33 -60 44 -16 26 -11
56 40 216 29 90 32 109 21 119 -11 9 -14 7 -14 -10 0 -36 -75 -216 -104 -248
-34 -39 -109 -26 -138 25 -15 26 -14 30 44 132 34 58 74 139 89 180 35 93 67
124 117 115 20 -4 59 -18 86 -32z m3124 -14 c17 -6 48 -31 68 -56 21 -25 92
-91 158 -146 67 -55 124 -105 128 -111 16 -23 7 -47 -24 -66 -57 -35 -93 -36
-138 -5 -43 30 -54 29 -122 -14 l-46 -29 11 -41 c10 -36 9 -43 -12 -64 -12
-14 -37 -33 -56 -43 -28 -15 -38 -16 -59 -6 -23 10 -26 17 -26 67 0 30 -6 72
-14 92 -8 21 -17 85 -21 142 -3 58 -13 120 -21 140 -23 54 -12 75 58 115 71
40 73 40 116 25z m-437 -250 c11 -5 33 -28 49 -51 25 -34 30 -51 30 -99 0 -68
-23 -102 -107 -156 -29 -18 -53 -40 -53 -49 0 -8 9 -33 21 -55 18 -36 19 -43
6 -63 -15 -22 -75 -46 -114 -46 -32 0 -56 37 -80 119 -31 109 -61 200 -84 249
-36 80 -30 89 92 132 89 30 202 40 240 19z m-1872 -70 c35 -12 68 -30 76 -43
15 -22 26 -91 45 -266 6 -58 16 -124 22 -146 19 -77 -28 -113 -103 -78 -49 22
-79 57 -79 95 0 26 -4 29 -62 42 -63 14 -98 9 -98 -15 0 -27 -34 -48 -76 -48
-97 0 -129 44 -75 102 17 18 31 37 31 41 0 4 30 51 66 104 36 53 76 117 89
142 28 56 59 85 96 90 3 1 33 -8 68 -20z m1353 -40 c18 -10 20 -17 14 -62 -4
-28 -14 -66 -23 -86 -9 -20 -22 -67 -28 -106 -44 -241 -57 -265 -147 -272 -37
-3 -59 0 -73 10 -19 15 -19 17 -3 61 17 45 17 46 -6 73 -13 16 -40 54 -60 85
-20 32 -59 87 -86 124 -76 102 -67 134 37 134 57 0 67 -3 89 -27 14 -15 43
-64 64 -110 22 -46 45 -83 51 -83 7 0 8 7 4 18 -14 35 -17 93 -7 134 6 24 13
55 17 70 4 20 14 30 38 37 45 13 95 13 119 0z m-733 -43 c108 -12 127 -16 143
-36 23 -28 23 -42 -1 -71 -18 -22 -25 -24 -104 -21 l-85 3 -6 -63 c-3 -35 -8
-110 -11 -168 -8 -128 -15 -140 -92 -140 -81 0 -94 18 -87 122 3 46 9 110 14
143 5 33 12 96 16 140 3 44 11 86 16 93 13 15 39 15 197 -2z"/>
<path d="M3342 6683 c-18 -7 -4 -23 19 -23 12 0 19 5 17 12 -5 14 -18 18 -36
11z"/>
<path d="M4636 6673 c-11 -11 -6 -23 9 -23 8 0 15 4 15 9 0 13 -16 22 -24 14z"/>
<path d="M3467 6663 c-17 -16 -3 -24 40 -21 62 4 71 28 11 28 -25 0 -48 -3
-51 -7z"/>
<path d="M4710 6561 c0 -5 24 -17 53 -25 85 -25 106 -62 67 -121 -23 -35 -25
-46 -7 -39 22 8 47 60 47 96 0 42 -28 70 -86 86 -50 14 -74 15 -74 3z"/>
<path d="M4540 6543 c0 -8 8 -16 18 -20 9 -3 27 -15 39 -26 21 -19 21 -22 8
-55 -20 -47 -19 -56 7 -38 12 9 35 16 51 16 47 0 44 26 -10 79 -50 49 -113 74
-113 44z"/>
<path d="M3925 6380 c-3 -5 2 -10 12 -10 10 0 29 -3 43 -6 24 -5 24 -5 6 10
-22 18 -52 21 -61 6z"/>
<path d="M4186 6372 c-3 -6 -2 -13 4 -17 14 -9 13 -48 -2 -63 -7 -7 -25 -12
-41 -12 -22 0 -30 6 -38 30 -7 19 -18 30 -30 30 -21 0 -25 -15 -8 -26 6 -3 9
-19 5 -35 l-5 -28 67 4 c41 3 66 9 64 15 -1 6 5 24 15 41 17 28 17 30 -4 50
-12 13 -23 17 -27 11z"/>
<path d="M4352 6338 c6 -18 28 -21 28 -4 0 9 -7 16 -16 16 -9 0 -14 -5 -12
-12z"/>
<path d="M4719 6303 c-35 -32 -40 -41 -35 -67 14 -66 59 -105 138 -117 41 -7
57 -5 90 12 46 24 121 34 172 25 20 -4 53 -21 72 -39 36 -31 36 -32 31 -92 -3
-33 -14 -80 -26 -105 -31 -67 -28 -132 8 -172 27 -30 34 -33 103 -36 58 -3 77
-1 87 12 12 14 6 15 -51 9 -135 -12 -179 54 -123 187 35 83 35 167 0 209 -37
43 -83 55 -208 53 l-107 -2 -51 50 c-43 43 -50 56 -47 81 6 38 -3 37 -53 -8z
m58 -62 c22 -35 41 -53 67 -62 62 -22 41 -45 -32 -34 -50 7 -112 58 -112 91 0
17 27 54 40 54 4 0 21 -22 37 -49z"/>
<path d="M3900 6280 c0 -5 5 -10 11 -10 5 0 7 5 4 10 -3 6 -8 10 -11 10 -2 0
-4 -4 -4 -10z"/>
<path d="M4300 6270 c0 -5 9 -10 21 -10 11 0 17 5 14 10 -3 6 -13 10 -21 10
-8 0 -14 -4 -14 -10z"/>
<path d="M3897 6174 c-8 -8 1 -24 14 -24 5 0 9 7 9 15 0 15 -12 20 -23 9z"/>
<path d="M4315 6170 c3 -5 10 -10 16 -10 5 0 9 5 9 10 0 6 -7 10 -16 10 -8 0
-12 -4 -9 -10z"/>
<path d="M4075 6160 c-3 -5 -15 -10 -26 -10 -10 0 -19 -7 -19 -15 0 -19 77
-95 97 -95 29 0 80 28 97 55 19 29 19 29 -8 52 -21 18 -39 23 -81 23 -30 0
-57 -4 -60 -10z m110 -24 c43 -32 -23 -78 -75 -51 -31 16 -45 33 -37 42 6 5
60 20 83 22 5 1 19 -5 29 -13z"/>
<path d="M4480 6065 c-6 -8 -9 -19 -5 -24 11 -19 -15 -51 -40 -51 -14 0 -25
-5 -25 -10 0 -16 38 -25 100 -25 42 0 55 3 55 15 0 11 -10 14 -42 12 -33 -3
-43 0 -43 12 0 8 9 20 20 26 12 6 20 21 20 35 0 28 -21 33 -40 10z"/>
<path d="M5367 5984 c-8 -8 1 -24 14 -24 5 0 9 7 9 15 0 15 -12 20 -23 9z"/>
<path d="M3960 5930 c13 -24 35 -27 26 -4 -3 9 -6 18 -6 20 0 2 -7 4 -15 4
-13 0 -14 -4 -5 -20z"/>
<path d="M3086 5871 c-39 -43 -6 -159 46 -160 10 -1 36 -8 58 -17 l41 -16 34
38 c38 43 43 65 19 88 -21 22 -94 22 -94 0 0 -12 7 -15 27 -11 37 7 53 -1 53
-28 0 -66 -88 -72 -157 -11 -25 21 -32 83 -12 103 6 6 10 16 7 23 -2 7 -10 4
-22 -9z"/>
<path d="M5240 5848 c0 -14 7 -29 16 -32 28 -11 62 -6 68 9 6 17 -17 31 -34
20 -6 -4 -20 1 -31 11 -18 16 -19 16 -19 -8z"/>
<path d="M3895 5780 c3 -5 15 -10 26 -10 10 0 19 5 19 10 0 6 -12 10 -26 10
-14 0 -23 -4 -19 -10z"/>
<path d="M4882 5728 c-7 -7 -12 -17 -12 -24 0 -7 -17 -26 -37 -43 -33 -26 -35
-30 -16 -31 22 0 67 46 78 81 8 25 3 33 -13 17z"/>
<path d="M3994 5719 c-3 -6 -2 -15 3 -20 12 -12 75 9 67 22 -7 13 -61 11 -70
-2z"/>
<path d="M4250 5715 c0 -8 4 -15 10 -15 5 0 7 7 4 15 -4 8 -8 15 -10 15 -2 0
-4 -7 -4 -15z"/>
<path d="M3668 5628 c-47 -32 -58 -44 -58 -67 0 -32 27 -60 90 -91 25 -12 60
-36 78 -53 23 -23 32 -27 32 -15 0 21 -49 62 -110 93 -97 49 -94 76 15 140 10
6 16 16 14 22 -2 6 -29 -6 -61 -29z"/>
<path d="M4700 5613 c-59 -25 -70 -40 -70 -100 0 -29 5 -53 10 -53 6 0 10 19
10 43 0 50 25 81 75 93 17 4 39 13 50 20 18 13 18 14 -10 13 -17 0 -46 -7 -65
-16z"/>
<path d="M3482 5538 c6 -18 28 -21 28 -4 0 9 -7 16 -16 16 -9 0 -14 -5 -12
-12z"/>
<path d="M3170 5511 c0 -16 43 -41 71 -41 15 0 32 7 39 15 11 13 7 15 -28 15
-23 0 -44 5 -47 10 -8 13 -35 13 -35 1z"/>
<path d="M4156 5475 c-9 -14 -26 -25 -37 -25 -27 0 -20 -24 8 -28 15 -2 27 7
42 31 11 19 21 37 21 41 0 14 -19 4 -34 -19z"/>
<path d="M3996 5383 c-11 -11 -6 -23 9 -23 8 0 15 4 15 9 0 13 -16 22 -24 14z"/>
<path d="M5920 6973 c-14 -19 -20 -38 -18 -62 3 -32 6 -36 34 -39 38 -4 74 35
74 77 0 55 -54 69 -90 24z"/>
<path d="M2030 6935 c0 -8 9 -15 20 -15 11 0 20 7 20 15 0 8 -9 15 -20 15 -11
0 -20 -7 -20 -15z"/>
<path d="M6313 6724 c-9 -23 11 -38 26 -20 13 16 7 36 -10 36 -5 0 -12 -7 -16
-16z"/>
<path d="M3580 6331 c0 -5 5 -13 10 -16 6 -3 10 -2 10 4 0 5 -4 13 -10 16 -5
3 -10 2 -10 -4z"/>
<path d="M2375 5950 c3 -5 11 -10 16 -10 6 0 7 5 4 10 -3 6 -11 10 -16 10 -6
0 -7 -4 -4 -10z"/>
<path d="M5935 6240 c-4 -6 -3 -16 3 -22 6 -6 12 -6 17 2 4 6 3 16 -3 22 -6 6
-12 6 -17 -2z"/>
<path d="M5930 6120 c0 -5 5 -10 10 -10 6 0 10 5 10 10 0 6 -4 10 -10 10 -5 0
-10 -4 -10 -10z"/>
<path d="M5830 5946 c0 -9 7 -16 16 -16 9 0 14 5 12 12 -6 18 -28 21 -28 4z"/>
<path d="M1600 6543 c1 -19 38 -55 49 -48 9 5 6 14 -10 31 -22 24 -39 31 -39
17z"/>
<path d="M3217 6395 c-34 -33 -59 -86 -53 -110 10 -38 47 -95 62 -95 20 0 18
8 -11 42 -37 43 -35 100 5 140 17 16 30 31 30 34 0 9 -19 3 -33 -11z"/>
<path d="M2875 5860 c-3 -5 -1 -10 4 -10 6 0 11 5 11 10 0 6 -2 10 -4 10 -3 0
-8 -4 -11 -10z"/>
<path d="M2845 5760 c3 -5 13 -10 21 -10 8 0 14 5 14 10 0 6 -9 10 -21 10 -11
0 -17 -4 -14 -10z"/>
<path d="M2880 5691 c0 -12 5 -21 10 -21 6 0 10 6 10 14 0 8 -4 18 -10 21 -5
3 -10 -3 -10 -14z"/>
<path d="M5720 6289 c0 -5 5 -7 10 -4 6 3 10 8 10 11 0 2 -4 4 -10 4 -5 0 -10
-5 -10 -11z"/>
<path d="M5650 6215 c-10 -12 -10 -15 3 -15 19 0 31 16 18 24 -5 3 -14 -1 -21
-9z"/>
<path d="M6813 6129 c-25 -9 -30 -24 -12 -35 13 -7 43 19 38 34 -3 6 -13 6
-26 1z"/>
<path d="M1936 5867 c3 -10 9 -15 12 -12 3 3 0 11 -7 18 -10 9 -11 8 -5 -6z"/>
<path d="M2582 5259 c2 -7 10 -15 17 -17 8 -3 12 1 9 9 -2 7 -10 15 -17 17 -8
3 -12 -1 -9 -9z"/>
<path d="M2670 5140 c0 -5 5 -10 11 -10 5 0 7 5 4 10 -3 6 -8 10 -11 10 -2 0
-4 -4 -4 -10z"/>
<path d="M2743 4903 c-18 -7 -16 -23 2 -23 8 0 15 7 15 15 0 8 -1 15 -2 14 -2
0 -9 -3 -15 -6z"/>
<path d="M5920 5634 c0 -9 5 -14 12 -12 18 6 21 28 4 28 -9 0 -16 -7 -16 -16z"/>
<path d="M5840 5559 c0 -5 5 -7 10 -4 6 3 10 8 10 11 0 2 -4 4 -10 4 -5 0 -10
-5 -10 -11z"/>
<path d="M2696 5597 c3 -10 9 -15 12 -12 3 3 0 11 -7 18 -10 9 -11 8 -5 -6z"/>
<path d="M1900 5323 c1 -5 15 -24 32 -43 33 -38 34 -33 3 17 -19 31 -36 43
-35 26z"/>
<path d="M2030 5116 c0 -9 5 -16 10 -16 6 0 10 4 10 9 0 6 -4 13 -10 16 -5 3
-10 -1 -10 -9z"/>
<path d="M1926 5015 c4 -8 13 -15 21 -15 13 0 13 3 3 15 -7 8 -16 15 -21 15
-5 0 -6 -7 -3 -15z"/>
<path d="M6322 4988 c-7 -7 -12 -21 -12 -32 0 -20 1 -20 22 2 15 15 19 25 12
32 -7 7 -14 6 -22 -2z"/>
<path d="M6180 4870 c-12 -7 -12 -12 -3 -21 10 -10 14 -9 19 5 8 22 2 27 -16
16z"/>
<path d="M5257 5413 c-12 -11 -8 -23 8 -23 8 0 15 7 15 15 0 16 -12 20 -23 8z"/>
<path d="M3030 5395 c0 -8 7 -15 15 -15 8 0 15 7 15 15 0 8 -7 15 -15 15 -8 0
-15 -7 -15 -15z"/>
<path d="M5207 5323 c-12 -11 -8 -23 8 -23 8 0 15 7 15 15 0 16 -12 20 -23 8z"/>
<path d="M3085 5309 c-4 -6 -4 -13 -1 -16 8 -8 36 5 36 17 0 13 -27 13 -35 -1z"/>
<path d="M5150 5215 c0 -9 5 -15 11 -13 6 2 11 8 11 13 0 5 -5 11 -11 13 -6 2
-11 -4 -11 -13z"/>
<path d="M3137 5214 c-8 -8 1 -24 14 -24 5 0 9 7 9 15 0 15 -12 20 -23 9z"/>
<path d="M5080 5136 c0 -8 4 -17 9 -20 10 -7 23 19 14 28 -11 11 -23 6 -23 -8z"/>
<path d="M5005 5050 c-8 -13 4 -32 16 -25 12 8 12 35 0 35 -6 0 -13 -4 -16
-10z"/>
<path d="M3292 5028 c6 -18 28 -21 28 -4 0 9 -7 16 -16 16 -9 0 -14 -5 -12
-12z"/>
<path d="M4922 4969 c2 -6 8 -10 13 -10 5 0 11 4 13 10 2 6 -4 11 -13 11 -9 0
-15 -5 -13 -11z"/>
<path d="M4832 4904 c1 -9 9 -19 16 -22 9 -3 13 2 10 14 -1 9 -9 19 -16 22 -9
3 -13 -2 -10 -14z"/>
<path d="M4635 4810 c-9 -14 1 -27 25 -33 17 -4 18 -2 10 13 -13 25 -27 33
-35 20z"/>
<path d="M3652 4796 c1 -10 8 -17 13 -17 15 1 12 24 -3 29 -9 3 -13 -2 -10
-12z"/>
<path d="M3754 4765 c-8 -20 3 -48 16 -40 13 8 13 55 0 55 -6 0 -13 -7 -16
-15z"/>
<path d="M4525 4770 c-7 -12 2 -30 16 -30 12 0 12 27 0 35 -5 3 -12 1 -16 -5z"/>
<path d="M3865 4740 c-7 -12 2 -30 16 -30 12 0 12 27 0 35 -5 3 -12 1 -16 -5z"/>
<path d="M4412 4736 c1 -10 8 -17 13 -17 15 1 12 24 -3 29 -9 3 -13 -2 -10
-12z"/>
<path d="M3972 4709 c2 -7 10 -15 17 -17 8 -3 12 1 9 9 -2 7 -10 15 -17 17 -8
3 -12 -1 -9 -9z"/>
<path d="M4080 4693 c1 -27 1 -27 15 -9 14 19 12 36 -6 36 -5 0 -9 -12 -9 -27z"/>
<path d="M4302 4708 c6 -18 28 -21 28 -4 0 9 -7 16 -16 16 -9 0 -14 -5 -12
-12z"/>
<path d="M4765 4680 c3 -5 8 -10 11 -10 2 0 4 5 4 10 0 6 -5 10 -11 10 -5 0
-7 -4 -4 -10z"/>
<path d="M3340 4662 c0 -5 18 -18 40 -31 40 -22 40 -22 95 -4 57 19 76 40 28
30 -88 -19 -94 -19 -118 -3 -26 17 -45 21 -45 8z"/>
<path d="M4860 4615 c0 -8 7 -15 15 -15 8 0 15 7 15 15 0 8 -7 15 -15 15 -8 0
-15 -7 -15 -15z"/>
<path d="M3680 4595 c7 -8 22 -15 34 -15 21 1 21 1 2 15 -27 21 -53 20 -36 0z"/>
<path d="M4600 4591 c0 -17 44 -41 75 -41 21 0 40 9 55 25 27 29 15 33 -27 8
-27 -15 -32 -15 -63 0 -39 20 -40 20 -40 8z"/>
<path d="M4420 4550 c-8 -5 -27 -10 -42 -10 -27 0 -37 -13 -20 -24 12 -7 74
11 97 29 20 14 20 14 0 15 -11 0 -27 -5 -35 -10z"/>
<path d="M3350 4526 c0 -9 5 -16 10 -16 6 0 10 4 10 9 0 6 -4 13 -10 16 -5 3
-10 -1 -10 -9z"/>
<path d="M4015 4530 c-6 -10 53 -24 81 -18 9 1 19 8 21 13 4 13 -94 18 -102 5z"/>
<path d="M3440 4523 c0 -32 96 -47 119 -19 9 11 2 13 -37 12 -26 0 -55 3 -64
8 -10 5 -18 4 -18 -1z"/>
<path d="M3660 4490 c0 -5 9 -10 21 -10 11 0 17 5 14 10 -3 6 -13 10 -21 10
-8 0 -14 -4 -14 -10z"/>
<path d="M3792 4488 c7 -21 53 -41 79 -35 30 8 66 33 58 41 -3 4 -23 -1 -43
-9 -34 -15 -40 -15 -62 -1 -28 19 -37 20 -32 4z"/>
<path d="M4175 4461 c-29 -6 -34 -29 -5 -23 8 1 32 5 52 9 21 3 35 9 32 14 -6
10 -34 10 -79 0z"/>
<path d="M4580 4454 c-14 -7 -35 -11 -47 -8 -26 7 -32 -11 -7 -20 28 -11 51
-6 69 14 23 25 17 30 -15 14z"/>
<path d="M4730 4460 c0 -16 51 -20 82 -6 l33 15 -57 -1 c-32 -1 -58 -4 -58 -8z"/>
<path d="M3600 4381 c-54 -7 -55 -7 -28 -20 31 -16 88 -5 96 17 2 6 0 11 -5
10 -4 -1 -33 -4 -63 -7z"/>
<path d="M4315 4379 c-11 -4 -35 -8 -53 -8 -22 -1 -31 -5 -26 -12 8 -13 91 -6
106 9 14 14 -3 21 -27 11z"/>
<path d="M3903 4367 c-7 -12 22 -18 73 -15 27 2 48 7 46 13 -2 11 -112 14
-119 2z"/>
<path d="M4622 4350 c-13 -11 -46 -22 -73 -26 -54 -7 -57 -24 -5 -24 28 0 77
28 115 66 14 14 -18 0 -37 -16z"/>
<path d="M4816 4351 c-10 -11 -29 -21 -42 -23 -31 -4 -36 -22 -8 -26 21 -3 84
41 84 59 0 15 -16 10 -34 -10z"/>
<path d="M3172 4188 c8 -12 20 -24 26 -26 18 -6 14 35 -4 42 -30 11 -37 6 -22
-16z"/>
<path d="M3762 4151 c-25 -16 33 -61 78 -61 48 0 70 -8 70 -26 0 -11 7 -9 29
7 27 20 32 20 157 10 88 -8 158 -9 221 -2 120 13 137 8 130 -35 -5 -31 -4 -33
14 -24 21 12 26 46 7 52 -21 7 3 28 32 28 23 0 28 4 23 16 -4 11 -12 14 -27 9
-21 -7 -202 -25 -266 -26 -79 -3 -347 9 -377 16 -18 4 -40 16 -49 26 -19 21
-23 22 -42 10z"/>
<path d="M4540 4040 c0 -5 5 -10 10 -10 6 0 10 5 10 10 0 6 -4 10 -10 10 -5 0
-10 -4 -10 -10z"/>
<path d="M4760 4020 c0 -5 11 -10 25 -10 14 0 25 5 25 10 0 6 -11 10 -25 10
-14 0 -25 -4 -25 -10z"/>
<path d="M3824 3997 c-16 -14 -24 -29 -20 -35 10 -16 26 -15 26 2 0 15 21 26
51 26 10 0 19 7 19 15 0 23 -45 18 -76 -8z"/>
<path d="M4066 3975 c-9 -13 -16 -29 -16 -35 0 -19 17 -10 28 15 18 38 72 31
72 -10 0 -23 -17 -35 -51 -35 -23 0 -24 -10 -4 -36 14 -18 16 -18 49 21 41 47
44 68 14 89 -34 24 -73 20 -92 -9z"/>
<path d="M4365 3980 c-22 -25 -12 -39 16 -21 18 10 24 10 40 -5 25 -22 33 -13
18 20 -15 32 -48 34 -74 6z"/>
<path d="M3896 3964 c-4 -10 -14 -14 -26 -11 -24 6 -28 -18 -4 -27 25 -10 54
3 54 24 0 25 -16 34 -24 14z"/>
<path d="M4260 3960 c0 -19 11 -26 23 -14 8 8 -3 34 -14 34 -5 0 -9 -9 -9 -20z"/>
<path d="M4486 3863 c-4 -5 -48 -8 -97 -8 -49 0 -90 -4 -91 -10 -2 -5 24 -10
57 -10 74 -1 99 -14 125 -65 11 -22 21 -40 23 -40 1 0 2 32 2 70 0 68 -3 78
-19 63z"/>
<path d="M3503 3846 c2 -6 19 -11 37 -11 18 0 35 5 37 11 2 7 -12 11 -37 11
-25 0 -39 -4 -37 -11z"/>
<path d="M3940 3825 c-45 -29 -100 -90 -100 -113 0 -9 -3 -27 -6 -39 -8 -29
27 -63 66 -63 23 0 33 7 46 33 20 39 31 47 67 47 l28 0 -17 33 c-9 17 -22 39
-29 47 -8 8 -15 29 -17 46 l-3 31 -35 -22z"/>
<path d="M4120 3831 c-39 -7 -48 -35 -18 -55 14 -9 21 -6 33 12 9 12 22 22 29
22 8 0 19 7 26 15 10 13 9 15 -11 14 -13 -1 -40 -4 -59 -8z"/>
<path d="M4720 3800 c0 -13 5 -20 13 -17 6 2 12 10 12 17 0 7 -6 15 -12 18 -8
2 -13 -5 -13 -18z"/>
<path d="M4240 3748 c-11 -12 -20 -27 -20 -34 0 -6 -3 -27 -7 -45 l-6 -34 31
27 c37 31 114 47 137 28 10 -9 12 -18 4 -37 -12 -33 -2 -44 17 -18 32 43 29
66 -9 102 -30 27 -45 33 -81 33 -34 0 -51 -6 -66 -22z"/>
<path d="M4104 3613 c-9 -15 -25 -40 -35 -55 -29 -42 -25 -51 19 -43 20 4 49
7 64 6 37 -2 42 12 19 57 -31 61 -46 69 -67 35z"/>
<path d="M4475 3618 c-15 -49 -120 -138 -163 -138 -24 0 -24 2 -19 45 9 59 -9
59 -24 0 -17 -68 -46 -80 -186 -80 -99 0 -115 2 -141 22 -26 19 -34 21 -61 10
-38 -14 -59 -4 -81 39 -12 24 -15 26 -18 11 -9 -42 8 -67 61 -91 44 -20 55
-22 73 -11 16 11 26 10 53 -1 49 -21 175 -17 241 6 30 11 76 19 101 20 44 0
50 3 103 61 31 33 56 64 56 68 0 4 12 13 26 20 21 9 24 14 14 26 -17 21 -28
19 -35 -7z"/>
<path d="M4326 3388 c-6 -26 9 -47 24 -32 10 10 2 54 -10 54 -4 0 -10 -10 -14
-22z"/>
<path d="M3640 3385 c0 -8 5 -15 10 -15 6 0 10 7 10 15 0 8 -4 15 -10 15 -5 0
-10 -7 -10 -15z"/>
<path d="M3725 3371 c-7 -12 12 -24 25 -16 11 7 4 25 -10 25 -5 0 -11 -4 -15
-9z"/>
<path d="M3420 3352 c0 -4 6 -16 13 -26 12 -17 14 -17 20 -3 4 11 -1 21 -13
27 -11 6 -20 7 -20 2z"/>
<path d="M4070 3290 c-44 -11 -75 -14 -95 -8 -39 10 -82 10 -70 0 14 -12 87
-32 116 -32 14 0 34 7 47 15 18 13 48 20 105 24 4 1 7 6 7 11 0 13 -32 11
-110 -10z"/>
<path d="M4278 3268 c-7 -13 -17 -48 -23 -78 -11 -61 -38 -86 -127 -118 -26
-9 -48 -20 -48 -24 0 -13 38 -9 78 8 20 8 50 14 67 12 33 -3 29 -12 51 122 4
25 13 54 20 65 16 23 18 35 4 35 -5 0 -15 -10 -22 -22z"/>
<path d="M4160 3220 c0 -5 7 -10 15 -10 8 0 15 5 15 10 0 6 -7 10 -15 10 -8 0
-15 -4 -15 -10z"/>
<path d="M3860 3180 c0 -12 28 -25 36 -17 3 3 -4 10 -15 17 -15 7 -21 7 -21 0z"/>
<path d="M3950 3156 c14 -14 142 -15 147 -1 2 6 -29 10 -77 11 -58 1 -78 -2
-70 -10z"/>
<path d="M3935 3069 c11 -16 57 -31 67 -21 6 6 -3 14 -23 21 -40 14 -52 14
-44 0z"/>
<path d="M3880 2990 c-12 -8 -10 -10 8 -10 13 0 32 -5 43 -11 19 -10 19 -9 9
10 -11 22 -36 27 -60 11z"/>
<path d="M4146 2971 c-30 -6 -49 -31 -24 -31 27 0 88 21 88 30 0 11 -19 11
-64 1z"/>
<path d="M3952 2928 c-16 -43 -6 -49 24 -15 29 33 30 47 6 47 -11 0 -22 -12
-30 -32z"/>
<path d="M4644 2933 c-49 -79 -63 -103 -96 -153 -35 -53 -58 -114 -58 -155 0
-29 15 -6 29 45 12 43 38 90 88 163 34 49 72 127 62 127 -5 0 -16 -12 -25 -27z"/>
<path d="M4210 2869 c-107 -84 -158 -109 -224 -109 -56 0 -77 -13 -57 -33 8
-8 14 -8 23 1 7 7 31 12 54 12 59 0 124 32 191 94 32 29 68 58 81 65 21 11 31
32 15 30 -5 0 -42 -27 -83 -60z"/>
<path d="M3914 2849 c-3 -6 -2 -15 4 -21 13 -13 32 -2 32 18 0 16 -26 19 -36
3z"/>
<path d="M4260 2830 c0 -13 28 -25 38 -16 3 4 0 11 -8 16 -20 13 -30 12 -30 0z"/>
<path d="M4346 2822 c-3 -6 -1 -14 5 -17 15 -10 25 3 12 16 -7 7 -13 7 -17 1z"/>
<path d="M4225 2723 c-16 -8 -50 -28 -75 -43 -62 -38 -102 -46 -134 -25 -33
22 -33 11 0 -28 18 -22 25 -39 22 -59 -6 -39 8 -35 31 10 13 26 41 51 92 83
41 26 84 50 97 53 23 8 31 26 10 26 -7 -1 -26 -8 -43 -17z"/>
<path d="M4340 2720 c0 -5 7 -10 15 -10 8 0 15 5 15 10 0 6 -7 10 -15 10 -8 0
-15 -4 -15 -10z"/>
<path d="M3832 2664 c2 -9 15 -26 31 -37 21 -16 30 -18 39 -9 9 9 8 12 -5 12
-10 0 -29 11 -43 25 -19 19 -25 21 -22 9z"/>
<path d="M4236 2601 c-4 -5 -2 -12 3 -15 5 -4 12 -2 15 3 4 5 2 12 -3 15 -5 4
-12 2 -15 -3z"/>
<path d="M4345 2590 c-8 -13 4 -32 16 -25 12 8 12 35 0 35 -6 0 -13 -4 -16
-10z"/>
<path d="M4455 2570 c-6 -9 11 -50 20 -50 3 0 5 14 5 30 0 29 -13 40 -25 20z"/>
<path d="M4165 2508 c-11 -6 -33 -22 -48 -35 -27 -21 -36 -23 -118 -19 -49 2
-89 0 -89 -4 0 -14 30 -19 114 -19 72 0 87 3 103 21 10 11 35 29 56 39 20 11
37 22 37 24 0 9 -35 5 -55 -7z"/>
<path d="M4260 2500 c19 -13 30 -13 30 0 0 6 -10 10 -22 10 -19 0 -20 -2 -8
-10z"/>
<path d="M4227 2414 c-34 -18 -30 -28 6 -19 30 8 58 35 36 35 -8 -1 -27 -8
-42 -16z"/>
<path d="M3870 2364 c0 -10 69 -34 97 -33 25 0 23 2 -17 19 -45 19 -80 25 -80
14z"/>
<path d="M4063 2353 c-38 -5 -45 -23 -9 -23 31 0 56 10 56 21 0 5 -3 8 -7 7
-5 0 -23 -3 -40 -5z"/>
<path d="M6015 4990 c-3 -6 1 -13 10 -16 19 -8 30 0 20 15 -8 14 -22 14 -30 1z"/>
<path d="M5649 4874 c-27 -29 -8 -33 27 -5 18 14 20 20 10 24 -8 3 -24 -5 -37
-19z"/>
<path d="M4510 5252 c0 -8 43 -32 57 -32 3 0 -2 9 -12 20 -18 20 -45 27 -45
12z"/>
<path d="M4365 5180 c-21 -23 -9 -26 18 -6 10 8 14 17 9 20 -5 3 -17 -3 -27
-14z"/>
<path d="M3895 5170 c-9 -28 -3 -33 19 -17 16 12 16 15 3 26 -13 10 -16 8 -22
-9z"/>
<path d="M4024 5149 c-3 -6 -2 -15 2 -19 12 -12 38 5 30 19 -9 14 -23 14 -32
0z"/>
<path d="M4150 5150 c0 -5 4 -10 9 -10 6 0 13 5 16 10 3 6 -1 10 -9 10 -9 0
-16 -4 -16 -10z"/>
<path d="M4255 5151 c-3 -5 -1 -12 5 -16 12 -7 30 2 30 16 0 12 -27 12 -35 0z"/>
<path d="M5447 5143 c-12 -12 -7 -22 8 -17 8 4 15 10 15 15 0 11 -14 12 -23 2z"/>
<path d="M5353 4888 c2 -7 10 -13 17 -13 7 0 15 6 18 13 2 7 -5 12 -18 12 -13
0 -20 -5 -17 -12z"/>
<path d="M5270 4810 c0 -5 5 -10 10 -10 6 0 10 5 10 10 0 6 -4 10 -10 10 -5 0
-10 -4 -10 -10z"/>
<path d="M1908 4653 c-4 -39 -1 -67 9 -85 7 -16 15 -28 17 -28 2 0 2 34 1 76
-3 95 -20 119 -27 37z"/>
<path d="M2000 4530 c0 -5 5 -10 11 -10 5 0 7 5 4 10 -3 6 -8 10 -11 10 -2 0
-4 -4 -4 -10z"/>
<path d="M3064 4866 c-6 -17 2 -36 17 -36 12 0 12 37 -1 45 -6 3 -13 -1 -16
-9z"/>
<path d="M712 5048 c5 -15 37 -18 41 -3 1 6 -9 12 -22 13 -16 3 -22 -1 -19
-10z"/>
<path d="M6410 4690 c0 -5 7 -10 15 -10 8 0 15 5 15 10 0 6 -7 10 -15 10 -8 0
-15 -4 -15 -10z"/>
<path d="M2450 4324 c0 -17 22 -14 28 4 2 7 -3 12 -12 12 -9 0 -16 -7 -16 -16z"/>
<path d="M1685 4470 c3 -5 8 -10 11 -10 2 0 4 5 4 10 0 6 -5 10 -11 10 -5 0
-7 -4 -4 -10z"/>
<path d="M2650 3684 c0 -8 5 -12 10 -9 6 3 10 10 10 16 0 5 -4 9 -10 9 -5 0
-10 -7 -10 -16z"/>
<path d="M2410 3665 c0 -9 5 -15 11 -13 6 2 11 8 11 13 0 5 -5 11 -11 13 -6 2
-11 -4 -11 -13z"/>
<path d="M2595 3650 c-4 -6 -3 -16 3 -22 6 -6 12 -6 17 2 4 6 3 16 -3 22 -6 6
-12 6 -17 -2z"/>
<path d="M5835 4530 c-3 -5 -1 -10 4 -10 6 0 11 5 11 10 0 6 -2 10 -4 10 -3 0
-8 -4 -11 -10z"/>
<path d="M7450 4585 c0 -16 9 -19 34 -9 25 9 19 24 -9 24 -16 0 -25 -6 -25
-15z"/>
<path d="M5025 3720 c3 -5 13 -10 21 -10 8 0 14 5 14 10 0 6 -9 10 -21 10 -11
0 -17 -4 -14 -10z"/>
<path d="M4940 3666 c0 -9 7 -16 16 -16 9 0 14 5 12 12 -6 18 -28 21 -28 4z"/>
<path d="M577 4534 c-12 -12 -8 -32 8 -37 8 -4 17 -2 19 2 7 11 -18 44 -27 35z"/>
<path d="M5100 4297 c0 -8 11 -19 25 -25 25 -12 30 -6 19 22 -7 19 -44 21 -44
3z"/>
<path d="M2457 4129 c-3 -13 -1 -19 6 -16 15 5 22 37 9 37 -5 0 -12 -9 -15
-21z"/>
<path d="M2535 4090 c-3 -5 1 -10 9 -10 9 0 16 5 16 10 0 6 -4 10 -9 10 -6 0
-13 -4 -16 -10z"/>
<path d="M2460 4072 c0 -5 7 -13 16 -16 10 -4 14 -1 12 6 -5 15 -28 23 -28 10z"/>
<path d="M4863 3223 c-17 -6 -16 -23 1 -23 8 0 16 7 20 15 6 15 1 17 -21 8z"/>
<path d="M1936 3656 c3 -9 11 -16 16 -16 13 0 5 23 -10 28 -7 2 -10 -2 -6 -12z"/>
<path d="M2190 3220 c0 -5 5 -10 10 -10 6 0 10 5 10 10 0 6 -4 10 -10 10 -5 0
-10 -4 -10 -10z"/>
<path d="M2450 3156 c0 -9 7 -16 16 -16 9 0 14 5 12 12 -6 18 -28 21 -28 4z"/>
<path d="M3310 3640 c0 -5 7 -10 16 -10 8 0 12 5 9 10 -3 6 -10 10 -16 10 -5
0 -9 -4 -9 -10z"/>
<path d="M2560 3330 c0 -5 5 -10 11 -10 5 0 7 5 4 10 -3 6 -8 10 -11 10 -2 0
-4 -4 -4 -10z"/>
<path d="M4657 3334 c-16 -19 -27 -38 -24 -41 6 -5 77 61 77 72 0 17 -29 0
-53 -31z"/>
<path d="M5363 3288 c2 -7 10 -13 17 -13 7 0 15 6 18 13 2 7 -5 12 -18 12 -13
0 -20 -5 -17 -12z"/>
<path d="M5247 3194 c-8 -8 1 -24 14 -24 5 0 9 7 9 15 0 15 -12 20 -23 9z"/>
<path d="M636 3369 c-33 -26 -33 -42 0 -68 25 -19 27 -19 67 -4 59 23 72 47
41 77 -22 22 -76 20 -108 -5z"/>
<path d="M7460 3235 c0 -14 5 -25 10 -25 6 0 10 11 10 25 0 14 -4 25 -10 25
-5 0 -10 -11 -10 -25z"/>
<path d="M2212 2968 c6 -18 28 -21 28 -4 0 9 -7 16 -16 16 -9 0 -14 -5 -12
-12z"/>
<path d="M2280 2875 c7 -9 15 -13 17 -11 7 7 -7 26 -19 26 -6 0 -6 -6 2 -15z"/>
<path d="M2685 2690 c3 -5 8 -10 11 -10 2 0 4 5 4 10 0 6 -5 10 -11 10 -5 0
-7 -4 -4 -10z"/>
<path d="M2455 2640 c3 -5 10 -10 16 -10 5 0 9 5 9 10 0 6 -7 10 -16 10 -8 0
-12 -4 -9 -10z"/>
<path d="M2800 2550 c0 -5 5 -10 10 -10 6 0 10 5 10 10 0 6 -4 10 -10 10 -5 0
-10 -4 -10 -10z"/>
<path d="M3116 2425 c4 -8 11 -15 16 -15 6 0 5 6 -2 15 -7 8 -14 15 -16 15 -2
0 -1 -7 2 -15z"/>
<path d="M3240 2240 c0 -5 5 -10 10 -10 6 0 10 5 10 10 0 6 -4 10 -10 10 -5 0
-10 -4 -10 -10z"/>
<path d="M3214 2124 c3 -9 6 -18 6 -20 0 -2 7 -4 15 -4 20 0 19 26 -1 34 -24
9 -27 8 -20 -10z"/>
<path d="M3277 2060 c12 -12 82 -16 85 -5 2 6 -19 11 -45 11 -27 1 -45 -2 -40
-6z"/>
<path d="M3350 1952 c0 -5 7 -13 16 -16 10 -4 14 -1 12 6 -5 15 -28 23 -28 10z"/>
<path d="M3410 1940 c0 -5 7 -10 15 -10 8 0 15 5 15 10 0 6 -7 10 -15 10 -8 0
-15 -4 -15 -10z"/>
<path d="M3450 1870 c0 -5 5 -10 11 -10 5 0 7 5 4 10 -3 6 -8 10 -11 10 -2 0
-4 -4 -4 -10z"/>
<path d="M4487 2143 c-12 -11 -8 -23 8 -23 8 0 15 7 15 15 0 16 -12 20 -23 8z"/>
<path d="M4070 1730 c0 -5 5 -10 10 -10 6 0 10 5 10 10 0 6 -4 10 -10 10 -5 0
-10 -4 -10 -10z"/>
<path d="M4850 1910 c0 -5 7 -10 15 -10 8 0 15 5 15 10 0 6 -7 10 -15 10 -8 0
-15 -4 -15 -10z"/>
<path d="M3957 2095 c-44 -15 -53 -22 -43 -32 3 -4 12 -1 18 5 7 7 26 12 44
12 17 0 37 7 44 15 10 12 9 15 -6 15 -11 -1 -36 -7 -57 -15z"/>
<path d="M3110 1841 c0 -14 9 -18 58 -26 50 -8 59 10 10 20 -18 4 -41 9 -50
11 -10 3 -18 1 -18 -5z"/>
<path d="M3212 1713 c16 -19 67 -26 99 -13 16 7 29 15 29 19 0 3 -31 6 -69 6
-52 0 -67 -3 -59 -12z"/>
<path d="M4405 1659 c-12 -19 5 -23 22 -6 16 16 16 17 1 17 -9 0 -20 -5 -23
-11z"/>
<path d="M5100 1820 c-6 -11 -22 -23 -35 -26 -30 -7 -33 -24 -5 -24 20 0 70
44 70 61 0 16 -19 9 -30 -11z"/>
<path d="M4975 1680 c-3 -5 -2 -10 4 -10 5 0 13 5 16 10 3 6 2 10 -4 10 -5 0
-13 -4 -16 -10z"/>
<path d="M4886 1661 c-11 -16 27 -22 43 -6 14 13 13 15 -11 15 -15 0 -29 -4
-32 -9z"/>
<path d="M5093 1639 c-6 -6 -26 -14 -45 -19 l-33 -7 26 -12 c24 -12 29 -10 53
13 14 15 26 29 26 31 0 9 -16 5 -27 -6z"/>
<path d="M4780 1615 c-7 -9 -11 -17 -9 -19 7 -7 49 13 49 24 0 15 -26 12 -40
-5z"/>
<path d="M4865 1550 c-3 -5 -2 -10 4 -10 5 0 13 5 16 10 3 6 2 10 -4 10 -5 0
-13 -4 -16 -10z"/>
<path d="M4290 1275 c0 -8 5 -15 10 -15 6 0 10 7 10 15 0 8 -4 15 -10 15 -5 0
-10 -7 -10 -15z"/>
<path d="M2500 900 c0 -5 5 -10 10 -10 6 0 10 5 10 10 0 6 -4 10 -10 10 -5 0
-10 -4 -10 -10z"/>
<path d="M5593 1148 c41 -100 51 -118 66 -118 9 0 22 5 28 11 9 9 0 25 -35 65
-45 51 -70 69 -59 42z"/>
<path d="M5035 950 c-3 -5 -1 -18 5 -29 5 -11 10 -29 10 -40 0 -21 22 -27 54
-15 19 7 21 57 4 71 -20 16 -66 24 -73 13z"/>
<path d="M3252 813 c-22 -62 -20 -88 6 -91 21 -3 22 0 22 62 0 36 -3 66 -8 66
-4 0 -13 -17 -20 -37z"/>
<path d="M5125 7720 c3 -5 13 -10 21 -10 8 0 12 5 9 10 -3 6 -13 10 -21 10 -8
0 -12 -4 -9 -10z"/>
<path d="M2860 7685 c-10 -12 -10 -15 3 -15 23 0 47 11 47 21 0 15 -37 10 -50
-6z"/>
<path d="M5230 7676 c0 -9 7 -16 16 -16 9 0 14 5 12 12 -6 18 -28 21 -28 4z"/>
<path d="M2705 7621 c-6 -11 9 -23 19 -14 9 9 7 23 -3 23 -6 0 -12 -4 -16 -9z"/>
<path d="M2538 7553 c7 -3 16 -2 19 1 4 3 -2 6 -13 5 -11 0 -14 -3 -6 -6z"/>
<path d="M2130 7358 c-16 -7 -20 -12 -12 -15 8 -3 21 2 30 11 19 18 17 19 -18
4z"/>
<path d="M2005 7290 c-3 -5 1 -10 9 -10 8 0 18 5 21 10 3 6 -1 10 -9 10 -8 0
-18 -4 -21 -10z"/>
<path d="M1920 7235 c0 -17 2 -18 24 -9 23 9 20 24 -4 24 -11 0 -20 -7 -20
-15z"/>
<path d="M6210 7215 c33 -19 50 -18 26 0 -11 8 -27 15 -35 15 -10 -1 -7 -6 9
-15z"/>
<path d="M6350 7100 c0 -5 9 -10 21 -10 11 0 17 5 14 10 -3 6 -13 10 -21 10
-8 0 -14 -4 -14 -10z"/>
<path d="M1725 7090 c-3 -5 1 -10 9 -10 8 0 18 5 21 10 3 6 -1 10 -9 10 -8 0
-18 -4 -21 -10z"/>
<path d="M6790 6725 c0 -8 5 -15 10 -15 6 0 10 7 10 15 0 8 -4 15 -10 15 -5 0
-10 -7 -10 -15z"/>
<path d="M1260 6690 c0 -5 7 -10 15 -10 8 0 15 5 15 10 0 6 -7 10 -15 10 -8 0
-15 -4 -15 -10z"/>
<path d="M6870 6620 c0 -5 7 -10 16 -10 8 0 12 5 9 10 -3 6 -10 10 -16 10 -5
0 -9 -4 -9 -10z"/>
<path d="M1195 6610 c-3 -5 -2 -10 4 -10 5 0 13 5 16 10 3 6 2 10 -4 10 -5 0
-13 -4 -16 -10z"/>
<path d="M1126 6533 c-11 -11 -6 -23 9 -23 8 0 15 4 15 9 0 13 -16 22 -24 14z"/>
<path d="M6982 6498 c6 -18 28 -21 28 -4 0 9 -7 16 -16 16 -9 0 -14 -5 -12
-12z"/>
<path d="M1030 6395 c-7 -9 -8 -15 -2 -15 5 0 12 7 16 15 3 8 4 15 2 15 -2 0
-9 -7 -16 -15z"/>
<path d="M7060 6395 c7 -9 15 -13 17 -11 7 7 -7 26 -19 26 -6 0 -6 -6 2 -15z"/>
<path d="M7180 6232 c0 -12 19 -26 26 -19 2 2 -2 10 -11 17 -9 8 -15 8 -15 2z"/>
<path d="M895 6220 c-3 -5 -2 -10 4 -10 5 0 13 5 16 10 3 6 2 10 -4 10 -5 0
-13 -4 -16 -10z"/>
<path d="M7284 6074 c3 -9 6 -18 6 -20 0 -2 4 -4 9 -4 5 0 7 9 4 20 -3 11 -10
20 -15 20 -6 0 -7 -7 -4 -16z"/>
<path d="M7380 5924 c0 -5 7 -19 15 -30 8 -10 15 -14 15 -8 0 5 -7 19 -15 30
-8 10 -15 14 -15 8z"/>
<path d="M7440 5810 c0 -5 5 -10 10 -10 6 0 10 5 10 10 0 6 -4 10 -10 10 -5 0
-10 -4 -10 -10z"/>
<path d="M7515 5680 c3 -5 8 -10 11 -10 2 0 4 5 4 10 0 6 -5 10 -11 10 -5 0
-7 -4 -4 -10z"/>
<path d="M565 5649 c-4 -6 -5 -13 -2 -16 7 -7 27 6 27 18 0 12 -17 12 -25 -2z"/>
<path d="M7615 5450 c-7 -12 2 -30 16 -30 12 0 12 27 0 35 -5 3 -12 1 -16 -5z"/>
<path d="M7750 5051 c0 -6 5 -13 10 -16 6 -3 10 1 10 9 0 9 -4 16 -10 16 -5 0
-10 -4 -10 -9z"/>
<path d="M7780 4875 c0 -9 5 -15 11 -13 6 2 11 8 11 13 0 5 -5 11 -11 13 -6 2
-11 -4 -11 -13z"/>
<path d="M7840 4561 c0 -6 5 -13 10 -16 6 -3 10 1 10 9 0 9 -4 16 -10 16 -5 0
-10 -4 -10 -9z"/>
<path d="M7850 4480 c0 -13 5 -20 13 -17 6 2 12 10 12 17 0 7 -6 15 -12 18 -8
2 -13 -5 -13 -18z"/>
<path d="M662 2258 c2 -6 10 -14 16 -16 7 -2 10 2 6 12 -7 18 -28 22 -22 4z"/>
<path d="M1000 1723 c1 -12 38 -58 43 -53 3 3 -6 18 -19 33 -13 15 -24 24 -24
20z"/>
<path d="M6830 1410 c-19 -16 -30 -29 -25 -30 10 0 65 47 65 55 0 9 -5 5 -40
-25z"/>
<path d="M6614 1196 c-10 -8 -15 -18 -11 -22 4 -4 15 0 24 9 22 21 12 31 -13
13z"/>
<path d="M1540 1132 c0 -5 7 -13 16 -16 10 -4 14 -1 12 6 -5 15 -28 23 -28 10z"/>
<path d="M6520 1115 c0 -9 5 -15 11 -13 6 2 11 8 11 13 0 5 -5 11 -11 13 -6 2
-11 -4 -11 -13z"/>
<path d="M1700 1002 c0 -12 19 -26 26 -19 2 2 -2 10 -11 17 -9 8 -15 8 -15 2z"/>
<path d="M6325 960 c-3 -5 -1 -10 4 -10 6 0 11 5 11 10 0 6 -2 10 -4 10 -3 0
-8 -4 -11 -10z"/>
<path d="M6277 933 c-4 -3 -7 -11 -7 -17 0 -6 5 -5 12 2 6 6 9 14 7 17 -3 3
-9 2 -12 -2z"/>
<path d="M1820 906 c0 -2 7 -6 15 -10 8 -3 15 -1 15 4 0 6 -7 10 -15 10 -8 0
-15 -2 -15 -4z"/>
<path d="M1910 862 c0 -5 7 -16 16 -23 14 -12 16 -11 13 5 -4 20 -29 35 -29
18z"/>
<path d="M2022 788 c5 -15 28 -23 28 -10 0 5 -7 13 -16 16 -10 4 -14 1 -12 -6z"/>
<path d="M6050 770 c0 -13 20 -13 40 0 12 8 9 10 -12 10 -16 0 -28 -4 -28 -10z"/>
<path d="M2105 730 c3 -5 10 -10 16 -10 5 0 9 5 9 10 0 6 -7 10 -16 10 -8 0
-12 -4 -9 -10z"/>
<path d="M2275 640 c3 -5 11 -10 16 -10 6 0 7 5 4 10 -3 6 -11 10 -16 10 -6 0
-7 -4 -4 -10z"/>
<path d="M5690 569 c0 -5 5 -7 10 -4 6 3 10 8 10 11 0 2 -4 4 -10 4 -5 0 -10
-5 -10 -11z"/>
<path d="M2770 415 c0 -8 7 -15 15 -15 8 0 15 4 15 9 0 5 -7 11 -15 15 -9 3
-15 0 -15 -9z"/>
<path d="M2975 350 c3 -5 13 -10 21 -10 8 0 14 5 14 10 0 6 -9 10 -21 10 -11
0 -17 -4 -14 -10z"/>
<path d="M5045 343 c-11 -3 -24 -9 -29 -14 -17 -15 29 -10 50 6 19 15 15 16
-21 8z"/>
<path d="M3285 280 c3 -5 10 -10 16 -10 5 0 9 5 9 10 0 6 -7 10 -16 10 -8 0
-12 -4 -9 -10z"/>
<path d="M3536 241 c-7 -11 28 -21 74 -21 20 0 30 4 25 9 -15 13 -93 22 -99
12z"/>
<path d="M3807 224 c-11 -11 3 -24 25 -24 17 0 18 2 8 15 -13 16 -23 19 -33 9z"/>
<path d="M3888 203 c7 -3 16 -2 19 1 4 3 -2 6 -13 5 -11 0 -14 -3 -6 -6z"/>
</g>
</svg>
