<svg width="200" height="24" viewBox="0 0 200 24" fill="none" xmlns="http://www.w3.org/2000/svg"><path d="M45.9756 18H48.3276V10.832L51.3356 16.192H53.1436L56.1676 10.816V18H58.5196V6.80001H55.8316L52.2476 13.392L48.6636 6.80001H45.9756V18Z" fill="#003E70"></path><path d="M65.8676 18.16C69.0676 18.16 71.5636 15.584 71.5636 12.4C71.5636 9.21601 69.0676 6.64001 65.8676 6.64001C62.6516 6.64001 60.1556 9.21601 60.1556 12.4C60.1556 15.584 62.6516 18.16 65.8676 18.16ZM65.8516 15.856C63.9636 15.856 62.5076 14.336 62.5076 12.4C62.5076 10.464 63.9636 8.94401 65.8516 8.94401C67.7556 8.94401 69.2116 10.464 69.2116 12.4C69.2116 14.336 67.7556 15.856 65.8516 15.856Z" fill="#003E70"></path><path d="M73.2018 18H75.5538V10.592L80.4178 18H83.0738V6.80001H80.7218V14.224L75.8418 6.80001H73.2018V18Z" fill="#003E70"></path><path d="M90.4063 18.16C93.6063 18.16 96.1023 15.584 96.1023 12.4C96.1023 9.21601 93.6063 6.64001 90.4063 6.64001C87.1903 6.64001 84.6943 9.21601 84.6943 12.4C84.6943 15.584 87.1903 18.16 90.4063 18.16ZM90.3903 15.856C88.5023 15.856 87.0463 14.336 87.0463 12.4C87.0463 10.464 88.5023 8.94401 90.3903 8.94401C92.2943 8.94401 93.7503 10.464 93.7503 12.4C93.7503 14.336 92.2943 15.856 90.3903 15.856Z" fill="#003E70"></path><path d="M97.7406 18H100.061V14.176H102.413C104.413 14.176 106.205 12.848 106.205 10.48C106.205 8.12801 104.413 6.80001 102.413 6.80001H97.7406V18ZM100.061 12.16V8.81602H102.253C103.261 8.81602 103.933 9.50401 103.933 10.48C103.933 11.472 103.261 12.16 102.253 12.16H100.061Z" fill="#003E70"></path><path d="M112.883 18.16C116.083 18.16 118.579 15.584 118.579 12.4C118.579 9.21601 116.083 6.64001 112.883 6.64001C109.667 6.64001 107.171 9.21601 107.171 12.4C107.171 15.584 109.667 18.16 112.883 18.16ZM112.867 15.856C110.979 15.856 109.523 14.336 109.523 12.4C109.523 10.464 110.979 8.94401 112.867 8.94401C114.771 8.94401 116.227 10.464 116.227 12.4C116.227 14.336 114.771 15.856 112.867 15.856Z" fill="#003E70"></path><path d="M120.217 18H128.073V15.824H122.569V6.80001H120.217V18Z" fill="#003E70"></path><path d="M131.794 18H134.146V13.552L138.146 6.80001H135.41L132.978 11.312L130.53 6.80001H127.794L131.794 13.552V18Z" fill="#003E70"></path><path d="M139.571 18.176C140.259 18.176 140.851 17.616 140.851 16.88C140.851 16.224 140.259 15.648 139.571 15.648C138.867 15.648 138.275 16.224 138.275 16.88C138.275 17.616 138.867 18.176 139.571 18.176Z" fill="#003E70"></path><path d="M149.272 18.16C152.456 18.16 154.92 15.584 154.92 12.4C154.92 9.21601 152.456 6.64001 149.272 6.64001C146.072 6.64001 143.608 9.21601 143.608 12.4C143.608 15.584 146.072 18.16 149.272 18.16ZM149.272 16.688C146.904 16.688 145.112 14.784 145.112 12.4C145.112 10.016 146.904 8.11201 149.272 8.11201C151.624 8.11201 153.416 10.016 153.416 12.4C153.416 14.784 151.624 16.688 149.272 16.688Z" fill="#003E70"></path><path d="M156.668 18H158.172V9.20002L164.172 18H165.884V6.80001H164.38V15.6L158.38 6.80001H156.668V18Z" fill="#003E70"></path><path d="M168.168 18H175.592V16.608H169.672V6.80001H168.168V18Z" fill="#003E70"></path><path d="M176.996 18H178.5V6.80001H176.996V18Z" fill="#003E70"></path><path d="M180.793 18H182.297V9.20002L188.297 18H190.009V6.80001H188.505V15.6L182.505 6.80001H180.793V18Z" fill="#003E70"></path><path d="M192.293 18H199.797V16.656H193.797V13.04H199.669V11.728H193.797V8.14401H199.797V6.80001H192.293V18Z" fill="#003E70"></path><path d="M31.2854 12.4867L26 6.52112H38.9999L33.7145 12.4867C33.0681 13.2163 31.9318 13.2163 31.2854 12.4867Z" fill="url(#paint0_linear_369123106)"></path><path d="M6.98745 0H0L4.54997 5.05396C8.28745 9.21124 11.8583 9.03067 13.4874 7.17336L6.98745 0Z" fill="url(#paint1_linear_369123106)"></path><path d="M4.47656 4.97241C7.19612 8.09438 10.8017 10.2354 13.4875 7.17341L13.0893 6.73302C11.3649 8.15109 8.41821 8.85677 4.47656 4.97241Z" fill="#003E70"></path><path d="M19.9872 0L13.4872 7.17336C11.8581 9.03067 8.28728 9.21124 4.5498 5.05396L10.5915 11.7786C12.1403 13.501 14.8341 13.501 16.3829 11.7786L26.9747 0H19.9872Z" fill="url(#paint2_linear_369123106)"></path><path d="M19.3375 15.4879H13.8125L15.598 17.4483C17.875 19.8082 20.3125 20.8679 22.4249 18.9116L19.3375 15.4879Z" fill="url(#paint3_linear_369123106)"></path><path d="M15.9248 17.7704C18.5248 20.3789 20.731 20.4802 22.4248 18.9116L22.0639 18.5114C20.4755 19.9657 18.1998 19.9713 15.9248 17.7704Z" fill="#003E70"></path><path d="M22.4265 18.9116C20.314 20.8679 17.8766 19.8082 15.5996 17.4483L20.987 23.3632C21.7602 24.2121 23.0929 24.2121 23.866 23.3632L31.037 15.4901V15.4879H25.514L22.4265 18.9116Z" fill="url(#paint4_linear_369123106)"></path><defs><linearGradient id="paint0_linear_369123106" x1="24.375" y1="9.86153" x2="39.3245" y2="9.86153" gradientUnits="userSpaceOnUse"><stop stop-color="#298FC2"></stop><stop offset="1" stop-color="#003F70"></stop></linearGradient><linearGradient id="paint1_linear_369123106" x1="-3.05686" y1="6.48482" x2="10.3963" y2="2.94191" gradientUnits="userSpaceOnUse"><stop stop-color="#298FC2"></stop><stop offset="1" stop-color="#003F70"></stop></linearGradient><linearGradient id="paint2_linear_369123106" x1="-7.30418" y1="6.80299" x2="27.6149" y2="6.80299" gradientUnits="userSpaceOnUse"><stop stop-color="#298FC2"></stop><stop offset="1" stop-color="#003F70"></stop></linearGradient><linearGradient id="paint3_linear_369123106" x1="8.04379" y1="19.4822" x2="20.3969" y2="16.971" gradientUnits="userSpaceOnUse"><stop stop-color="#298FC2"></stop><stop offset="1" stop-color="#003F70"></stop></linearGradient><linearGradient id="paint4_linear_369123106" x1="4.22505" y1="19.806" x2="31.0369" y2="19.806" gradientUnits="userSpaceOnUse"><stop stop-color="#298FC2"></stop><stop offset="1" stop-color="#003F70"></stop></linearGradient></defs></svg>
